G04 #@! TF.FileFunction,Soldermask,Bot*
%FSLAX46Y46*%
G04 Gerber Fmt 4.6, Leading zero omitted, Abs format (unit mm)*
G04 Created by KiCad (PCBNEW 4.0.0~rc1a-stable) date Sat 16 Jan 2016 09:07:18 PM JST*
%MOMM*%
G01*
G04 APERTURE LIST*
%ADD10C,0.100000*%
G04 APERTURE END LIST*
D10*
G36*
X-11724183Y-3879832D02*
X-11724169Y-3879836D01*
X-11724134Y-3879840D01*
X-11525838Y-3941222D01*
X-11343242Y-4039952D01*
X-11183301Y-4172267D01*
X-11052105Y-4333129D01*
X-10954653Y-4516410D01*
X-10894656Y-4715128D01*
X-10874400Y-4921716D01*
X-10874400Y-5238284D01*
X-10874504Y-5253134D01*
X-10897642Y-5459419D01*
X-10960408Y-5657281D01*
X-11060409Y-5839183D01*
X-11193838Y-5998197D01*
X-11355612Y-6128267D01*
X-11539568Y-6224437D01*
X-11738701Y-6283045D01*
X-11738735Y-6283048D01*
X-11738748Y-6283052D01*
X-11945423Y-6301861D01*
X-12151817Y-6280168D01*
X-12151831Y-6280164D01*
X-12151866Y-6280160D01*
X-12350162Y-6218778D01*
X-12532758Y-6120048D01*
X-12692699Y-5987733D01*
X-12823895Y-5826871D01*
X-12921347Y-5643590D01*
X-12981344Y-5444872D01*
X-13001600Y-5238284D01*
X-13001600Y-4921716D01*
X-13001496Y-4906866D01*
X-12978358Y-4700581D01*
X-12915592Y-4502719D01*
X-12815591Y-4320817D01*
X-12682162Y-4161803D01*
X-12520388Y-4031733D01*
X-12336432Y-3935563D01*
X-12137299Y-3876955D01*
X-12137265Y-3876952D01*
X-12137252Y-3876948D01*
X-11930577Y-3858139D01*
X-11724183Y-3879832D01*
X-11724183Y-3879832D01*
G37*
G36*
X-9184183Y-3879832D02*
X-9184169Y-3879836D01*
X-9184134Y-3879840D01*
X-8985838Y-3941222D01*
X-8803242Y-4039952D01*
X-8643301Y-4172267D01*
X-8512105Y-4333129D01*
X-8414653Y-4516410D01*
X-8354656Y-4715128D01*
X-8334400Y-4921716D01*
X-8334400Y-5238284D01*
X-8334504Y-5253134D01*
X-8357642Y-5459419D01*
X-8420408Y-5657281D01*
X-8520409Y-5839183D01*
X-8653838Y-5998197D01*
X-8815612Y-6128267D01*
X-8999568Y-6224437D01*
X-9198701Y-6283045D01*
X-9198735Y-6283048D01*
X-9198748Y-6283052D01*
X-9405423Y-6301861D01*
X-9611817Y-6280168D01*
X-9611831Y-6280164D01*
X-9611866Y-6280160D01*
X-9810162Y-6218778D01*
X-9992758Y-6120048D01*
X-10152699Y-5987733D01*
X-10283895Y-5826871D01*
X-10381347Y-5643590D01*
X-10441344Y-5444872D01*
X-10461600Y-5238284D01*
X-10461600Y-4921716D01*
X-10461496Y-4906866D01*
X-10438358Y-4700581D01*
X-10375592Y-4502719D01*
X-10275591Y-4320817D01*
X-10142162Y-4161803D01*
X-9980388Y-4031733D01*
X-9796432Y-3935563D01*
X-9597299Y-3876955D01*
X-9597265Y-3876952D01*
X-9597252Y-3876948D01*
X-9390577Y-3858139D01*
X-9184183Y-3879832D01*
X-9184183Y-3879832D01*
G37*
G36*
X-14264183Y-3879832D02*
X-14264169Y-3879836D01*
X-14264134Y-3879840D01*
X-14065838Y-3941222D01*
X-13883242Y-4039952D01*
X-13723301Y-4172267D01*
X-13592105Y-4333129D01*
X-13494653Y-4516410D01*
X-13434656Y-4715128D01*
X-13414400Y-4921716D01*
X-13414400Y-5238284D01*
X-13414504Y-5253134D01*
X-13437642Y-5459419D01*
X-13500408Y-5657281D01*
X-13600409Y-5839183D01*
X-13733838Y-5998197D01*
X-13895612Y-6128267D01*
X-14079568Y-6224437D01*
X-14278701Y-6283045D01*
X-14278735Y-6283048D01*
X-14278748Y-6283052D01*
X-14485423Y-6301861D01*
X-14691817Y-6280168D01*
X-14691831Y-6280164D01*
X-14691866Y-6280160D01*
X-14890162Y-6218778D01*
X-15072758Y-6120048D01*
X-15232699Y-5987733D01*
X-15363895Y-5826871D01*
X-15461347Y-5643590D01*
X-15521344Y-5444872D01*
X-15541600Y-5238284D01*
X-15541600Y-4921716D01*
X-15541496Y-4906866D01*
X-15518358Y-4700581D01*
X-15455592Y-4502719D01*
X-15355591Y-4320817D01*
X-15222162Y-4161803D01*
X-15060388Y-4031733D01*
X-14876432Y-3935563D01*
X-14677299Y-3876955D01*
X-14677265Y-3876952D01*
X-14677252Y-3876948D01*
X-14470577Y-3858139D01*
X-14264183Y-3879832D01*
X-14264183Y-3879832D01*
G37*
G36*
X-15700400Y-6296000D02*
X-17827600Y-6296000D01*
X-17827600Y-3864000D01*
X-15700400Y-3864000D01*
X-15700400Y-6296000D01*
X-15700400Y-6296000D01*
G37*
G36*
X-5642000Y1324000D02*
X-8074000Y1324000D01*
X-8074000Y3756000D01*
X-5642000Y3756000D01*
X-5642000Y1324000D01*
X-5642000Y1324000D01*
G37*
G36*
X5179782Y5521369D02*
X5362284Y5483907D01*
X5534029Y5411712D01*
X5688483Y5307532D01*
X5819762Y5175333D01*
X5922862Y5020156D01*
X5993856Y4847911D01*
X6029975Y4665496D01*
X6029975Y4665486D01*
X6030041Y4665152D01*
X6027070Y4452357D01*
X6026994Y4452023D01*
X6026994Y4452011D01*
X5985798Y4270684D01*
X5910019Y4100484D01*
X5802628Y3948246D01*
X5667707Y3819763D01*
X5510408Y3719939D01*
X5336710Y3652565D01*
X5153238Y3620215D01*
X4966974Y3624116D01*
X4785011Y3664123D01*
X4614289Y3738710D01*
X4461306Y3845036D01*
X4331885Y3979054D01*
X4230965Y4135652D01*
X4162381Y4308875D01*
X4128748Y4492124D01*
X4131350Y4678409D01*
X4170084Y4860640D01*
X4243479Y5031882D01*
X4348735Y5185604D01*
X4481846Y5315957D01*
X4637738Y5417970D01*
X4810477Y5487761D01*
X4993479Y5522670D01*
X5179782Y5521369D01*
X5179782Y5521369D01*
G37*
G36*
X-14264183Y6280168D02*
X-14264169Y6280164D01*
X-14264134Y6280160D01*
X-14065838Y6218778D01*
X-13883242Y6120048D01*
X-13723301Y5987733D01*
X-13592105Y5826871D01*
X-13494653Y5643590D01*
X-13434656Y5444872D01*
X-13414400Y5238284D01*
X-13414400Y4921716D01*
X-13414504Y4906866D01*
X-13437642Y4700581D01*
X-13500408Y4502719D01*
X-13600409Y4320817D01*
X-13733838Y4161803D01*
X-13895612Y4031733D01*
X-14079568Y3935563D01*
X-14278701Y3876955D01*
X-14278735Y3876952D01*
X-14278748Y3876948D01*
X-14485423Y3858139D01*
X-14691817Y3879832D01*
X-14691831Y3879836D01*
X-14691866Y3879840D01*
X-14890162Y3941222D01*
X-15072758Y4039952D01*
X-15232699Y4172267D01*
X-15363895Y4333129D01*
X-15461347Y4516410D01*
X-15521344Y4715128D01*
X-15541600Y4921716D01*
X-15541600Y5238284D01*
X-15541496Y5253134D01*
X-15518358Y5459419D01*
X-15455592Y5657281D01*
X-15355591Y5839183D01*
X-15222162Y5998197D01*
X-15060388Y6128267D01*
X-14876432Y6224437D01*
X-14677299Y6283045D01*
X-14677265Y6283048D01*
X-14677252Y6283052D01*
X-14470577Y6301861D01*
X-14264183Y6280168D01*
X-14264183Y6280168D01*
G37*
G36*
X-11724183Y6280168D02*
X-11724169Y6280164D01*
X-11724134Y6280160D01*
X-11525838Y6218778D01*
X-11343242Y6120048D01*
X-11183301Y5987733D01*
X-11052105Y5826871D01*
X-10954653Y5643590D01*
X-10894656Y5444872D01*
X-10874400Y5238284D01*
X-10874400Y4921716D01*
X-10874504Y4906866D01*
X-10897642Y4700581D01*
X-10960408Y4502719D01*
X-11060409Y4320817D01*
X-11193838Y4161803D01*
X-11355612Y4031733D01*
X-11539568Y3935563D01*
X-11738701Y3876955D01*
X-11738735Y3876952D01*
X-11738748Y3876948D01*
X-11945423Y3858139D01*
X-12151817Y3879832D01*
X-12151831Y3879836D01*
X-12151866Y3879840D01*
X-12350162Y3941222D01*
X-12532758Y4039952D01*
X-12692699Y4172267D01*
X-12823895Y4333129D01*
X-12921347Y4516410D01*
X-12981344Y4715128D01*
X-13001600Y4921716D01*
X-13001600Y5238284D01*
X-13001496Y5253134D01*
X-12978358Y5459419D01*
X-12915592Y5657281D01*
X-12815591Y5839183D01*
X-12682162Y5998197D01*
X-12520388Y6128267D01*
X-12336432Y6224437D01*
X-12137299Y6283045D01*
X-12137265Y6283048D01*
X-12137252Y6283052D01*
X-11930577Y6301861D01*
X-11724183Y6280168D01*
X-11724183Y6280168D01*
G37*
G36*
X-9184183Y6280168D02*
X-9184169Y6280164D01*
X-9184134Y6280160D01*
X-8985838Y6218778D01*
X-8803242Y6120048D01*
X-8643301Y5987733D01*
X-8512105Y5826871D01*
X-8414653Y5643590D01*
X-8354656Y5444872D01*
X-8334400Y5238284D01*
X-8334400Y4921716D01*
X-8334504Y4906866D01*
X-8357642Y4700581D01*
X-8420408Y4502719D01*
X-8520409Y4320817D01*
X-8653838Y4161803D01*
X-8815612Y4031733D01*
X-8999568Y3935563D01*
X-9198701Y3876955D01*
X-9198735Y3876952D01*
X-9198748Y3876948D01*
X-9405423Y3858139D01*
X-9611817Y3879832D01*
X-9611831Y3879836D01*
X-9611866Y3879840D01*
X-9810162Y3941222D01*
X-9992758Y4039952D01*
X-10152699Y4172267D01*
X-10283895Y4333129D01*
X-10381347Y4516410D01*
X-10441344Y4715128D01*
X-10461600Y4921716D01*
X-10461600Y5238284D01*
X-10461496Y5253134D01*
X-10438358Y5459419D01*
X-10375592Y5657281D01*
X-10275591Y5839183D01*
X-10142162Y5998197D01*
X-9980388Y6128267D01*
X-9796432Y6224437D01*
X-9597299Y6283045D01*
X-9597265Y6283048D01*
X-9597252Y6283052D01*
X-9390577Y6301861D01*
X-9184183Y6280168D01*
X-9184183Y6280168D01*
G37*
G36*
X-16804183Y6280168D02*
X-16804169Y6280164D01*
X-16804134Y6280160D01*
X-16605838Y6218778D01*
X-16423242Y6120048D01*
X-16263301Y5987733D01*
X-16132105Y5826871D01*
X-16034653Y5643590D01*
X-15974656Y5444872D01*
X-15954400Y5238284D01*
X-15954400Y4921716D01*
X-15954504Y4906866D01*
X-15977642Y4700581D01*
X-16040408Y4502719D01*
X-16140409Y4320817D01*
X-16273838Y4161803D01*
X-16435612Y4031733D01*
X-16619568Y3935563D01*
X-16818701Y3876955D01*
X-16818735Y3876952D01*
X-16818748Y3876948D01*
X-17025423Y3858139D01*
X-17231817Y3879832D01*
X-17231831Y3879836D01*
X-17231866Y3879840D01*
X-17430162Y3941222D01*
X-17612758Y4039952D01*
X-17772699Y4172267D01*
X-17903895Y4333129D01*
X-18001347Y4516410D01*
X-18061344Y4715128D01*
X-18081600Y4921716D01*
X-18081600Y5238284D01*
X-18081496Y5253134D01*
X-18058358Y5459419D01*
X-17995592Y5657281D01*
X-17895591Y5839183D01*
X-17762162Y5998197D01*
X-17600388Y6128267D01*
X-17416432Y6224437D01*
X-17217299Y6283045D01*
X-17217265Y6283048D01*
X-17217252Y6283052D01*
X-17010577Y6301861D01*
X-16804183Y6280168D01*
X-16804183Y6280168D01*
G37*
G36*
X-5642000Y3864000D02*
X-8074000Y3864000D01*
X-8074000Y6296000D01*
X-5642000Y6296000D01*
X-5642000Y3864000D01*
X-5642000Y3864000D01*
G37*
M02*
