M48
METRIC,TZ
T1C0.400
T2C0.952
T3C1.016
T4C1.500
%
G90
G05
T1
X-019939Y003556
X-017704Y-003023
X-017399Y001778
X-016764Y-000889
X-014986Y-000635
X-010922Y-003302
X-008903Y-003810
X-007239Y000508
X-006414Y-003302
X-003810Y-000254
T2
X-016764Y-005334
X-014478Y-005334
X-011938Y-005334
X-009398Y-005334
T3
X-017018Y004826
X-014478Y004826
X-011938Y004826
X-009398Y004826
X-006858Y004826
X-006858Y002286
T4
X005080Y004318
T0
M30
