G04 #@! TF.FileFunction,Copper,L1,Top,Signal*
%FSLAX46Y46*%
G04 Gerber Fmt 4.6, Leading zero omitted, Abs format (unit mm)*
G04 Created by KiCad (PCBNEW 4.0.0~rc1a-stable) date Sat 16 Jan 2016 09:07:18 PM JST*
%MOMM*%
G01*
G04 APERTURE LIST*
%ADD10C,0.100000*%
%ADD11R,1.727200X2.032000*%
%ADD12O,1.727200X2.032000*%
%ADD13R,0.599440X1.198880*%
%ADD14R,0.600000X0.500000*%
%ADD15R,8.000000X1.900000*%
%ADD16R,7.500000X2.000000*%
%ADD17C,9.000000*%
%ADD18R,0.800000X0.750000*%
%ADD19R,0.500000X0.600000*%
%ADD20R,0.750000X0.800000*%
%ADD21R,0.400000X0.600000*%
%ADD22R,0.797560X0.797560*%
%ADD23R,2.032000X2.032000*%
%ADD24R,0.600000X0.250000*%
%ADD25R,0.700000X0.250000*%
%ADD26R,0.250000X0.600000*%
%ADD27R,0.250000X0.700000*%
%ADD28R,1.525000X1.525000*%
%ADD29C,0.250000*%
%ADD30C,0.600000*%
%ADD31C,0.250000*%
%ADD32C,0.350000*%
%ADD33C,0.254000*%
G04 APERTURE END LIST*
D10*
D11*
X-16764000Y-5080000D03*
D12*
X-11938000Y-5080000D03*
X-14478000Y-5080000D03*
X-9398000Y-5080000D03*
D13*
X-17332960Y-3048000D03*
X-18735040Y-3048000D03*
D14*
X-10329000Y-3175000D03*
X-9229000Y-3175000D03*
D15*
X-23548000Y-3810000D03*
X-23548000Y3810000D03*
D16*
X-23298000Y1300000D03*
X-23298000Y-1300000D03*
D17*
X0Y0D03*
D18*
X-16879000Y2540000D03*
X-15379000Y2540000D03*
D19*
X-17780000Y-466000D03*
X-17780000Y-1566000D03*
D20*
X-16205200Y-1129600D03*
X-16205200Y-2629600D03*
D21*
X-6281000Y254000D03*
X-7181000Y254000D03*
X-7308000Y-4000500D03*
X-6408000Y-4000500D03*
D22*
X-7366000Y-2654300D03*
X-7366000Y-1155700D03*
D23*
X-6858000Y2540000D03*
X-6858000Y5080000D03*
D12*
X-9398000Y5080000D03*
X-11938000Y5080000D03*
X-14478000Y5080000D03*
X-17018000Y5080000D03*
D24*
X-13830000Y2258000D03*
D25*
X-13830000Y1758000D03*
X-13830000Y1258000D03*
X-13830000Y758000D03*
X-13830000Y258000D03*
X-13830000Y-242000D03*
X-13830000Y-742000D03*
X-13830000Y-1242000D03*
D26*
X-13180000Y-1892000D03*
D27*
X-12680000Y-1892000D03*
X-12180000Y-1892000D03*
X-11680000Y-1892000D03*
X-11180000Y-1892000D03*
X-10680000Y-1892000D03*
X-10180000Y-1892000D03*
X-9680000Y-1892000D03*
D24*
X-9030000Y-1242000D03*
D25*
X-9030000Y-742000D03*
X-9030000Y-242000D03*
X-9030000Y258000D03*
X-9030000Y758000D03*
X-9030000Y1258000D03*
X-9030000Y1758000D03*
X-9030000Y2258000D03*
D26*
X-9680000Y2908000D03*
D27*
X-10180000Y2908000D03*
X-10680000Y2908000D03*
X-11180000Y2908000D03*
X-11680000Y2908000D03*
X-12180000Y2908000D03*
X-12680000Y2908000D03*
X-13180000Y2908000D03*
D28*
X-10567500Y-354500D03*
X-10567500Y1370500D03*
X-12292500Y-354500D03*
X-12292500Y1370500D03*
D29*
X-18042000Y1279500D03*
X-18042000Y779500D03*
X-18042000Y1779500D03*
X-18042000Y2279500D03*
X-18542000Y2279500D03*
X-18542000Y1779500D03*
X-19042000Y1279500D03*
X-19042000Y779500D03*
X-18542000Y779500D03*
X-18542000Y1279500D03*
X-19042000Y1779500D03*
D30*
X-19939000Y3810000D03*
X-8902700Y-3556000D03*
X-16764000Y-635000D03*
X-10922000Y-3048000D03*
X-6413500Y-3048000D03*
X-14986000Y-381000D03*
X-17703800Y-2768600D03*
X-17399000Y2032000D03*
X-3810000Y0D03*
X-7239000Y762000D03*
D31*
X-15379000Y2540000D02*
X-15372967Y2923094D01*
X-15748000Y3302000D02*
X-18034000Y3302000D01*
D32*
X-15748000Y3302000D02*
X-18034000Y3302000D01*
X-18034000Y3302000D02*
X-18161000Y3175000D01*
X-18161000Y3175000D02*
X-21971000Y3175000D01*
X-21971000Y3175000D02*
X-21971000Y3175000D01*
X-21971000Y3175000D02*
X-22987000Y3810000D01*
X-15304754Y2868073D02*
X-15679787Y3246979D01*
X-22987000Y3810000D02*
X-23548000Y3810000D01*
D31*
X-23548000Y3810000D02*
X-19939000Y3810000D01*
X-8902700Y-3556000D02*
X-8902700Y-3501300D01*
X-8902700Y-3501300D02*
X-9229000Y-3175000D01*
X-15125700Y1790700D02*
X-15125700Y2286700D01*
X-15125700Y2286700D02*
X-15379000Y2540000D01*
X-15367000Y2032000D02*
X-15125700Y1790700D01*
X-15125700Y1790700D02*
X-15093000Y1758000D01*
X-15367000Y2528000D02*
X-15367000Y2032000D01*
X-15093000Y1758000D02*
X-13830000Y1758000D01*
X-15379000Y2540000D02*
X-15621000Y2298000D01*
X-15455200Y2540000D02*
X-15379000Y2540000D01*
X-15379000Y2540000D02*
X-15455200Y2540000D01*
X-15621000Y2298000D02*
X-15379000Y2540000D01*
X-13830000Y1758000D02*
X-14376400Y1758000D01*
X-14940600Y1758000D02*
X-15379000Y2196400D01*
X-14376400Y1758000D02*
X-14940600Y1758000D01*
X-15379000Y2196400D02*
X-15379000Y2540000D01*
D32*
X-15379000Y2755200D02*
X-15379000Y2540000D01*
D31*
X-15367000Y2528000D02*
X-15379000Y2540000D01*
X-15379000Y2298000D02*
X-15379000Y2540000D01*
X-17780000Y-1566000D02*
X-18373000Y-1566000D01*
X-18542000Y-1397000D02*
X-18542000Y779500D01*
X-18373000Y-1566000D02*
X-18542000Y-1397000D01*
X-17780000Y-1566000D02*
X-17780000Y-1651000D01*
D32*
X-17780000Y-1651000D02*
X-17399000Y-2032000D01*
X-16802800Y-2032000D02*
X-16205200Y-2629600D01*
X-17399000Y-2032000D02*
X-16802800Y-2032000D01*
D31*
X-16205200Y-2629600D02*
X-16256000Y-2667000D01*
D32*
X-16256000Y-2667000D02*
X-15621000Y-2032000D01*
X-15621000Y-2032000D02*
X-14859000Y-2032000D01*
D31*
X-14859000Y-2032000D02*
X-14069000Y-1242000D01*
X-14069000Y-1242000D02*
X-13830000Y-1242000D01*
D32*
X-16205200Y-2629600D02*
X-16205200Y-4521200D01*
D31*
X-16205200Y-4521200D02*
X-16764000Y-5080000D01*
X-9641600Y-2044700D02*
X-9626600Y-2044700D01*
D32*
X-9626600Y-2044700D02*
X-9229000Y-2328000D01*
X-9229000Y-2328000D02*
X-9229000Y-3175000D01*
D31*
X-9200000Y-3175000D02*
X-9229000Y-3175000D01*
X-9118600Y-3175000D02*
X-9229000Y-3175000D01*
X-17018000Y-4800600D02*
X-17018000Y-5080000D01*
X-16243998Y-2629600D02*
X-16205200Y-2629600D01*
X-13830000Y-1242000D02*
X-13967400Y-1242000D01*
D32*
X-16205200Y-1129600D02*
X-16205200Y0D01*
X-15265400Y254000D02*
X-15265400Y254002D01*
X-15947202Y257998D02*
X-15265400Y254000D01*
X-16205200Y0D02*
X-15947202Y257998D01*
X-17780000Y-466000D02*
X-16933000Y-466000D01*
X-16933000Y-466000D02*
X-16269400Y-1129600D01*
X-16269400Y-1129600D02*
X-16205200Y-1129600D01*
X-6413500Y-3048000D02*
X-6413500Y-2921000D01*
X-6578600Y-43600D02*
X-6281000Y254000D01*
X-6578600Y-2755900D02*
X-6578600Y-43600D01*
X-6413500Y-2921000D02*
X-6578600Y-2755900D01*
D31*
X-6408000Y-4000500D02*
X-6408000Y-3815500D01*
X-6408000Y-3815500D02*
X-6604000Y-3619500D01*
X-6604000Y-3619500D02*
X-6604000Y-3238500D01*
X-6604000Y-3238500D02*
X-6413500Y-3048000D01*
X-6350000Y185000D02*
X-6281000Y254000D01*
X-6281000Y254000D02*
X-6281000Y312000D01*
X-6281000Y312000D02*
X-6350000Y381000D01*
D32*
X-6350000Y381000D02*
X-6350000Y2032000D01*
D31*
X-6350000Y2032000D02*
X-6858000Y2540000D01*
X-6350000Y2032000D02*
X-6858000Y2540000D01*
X-6350000Y2032000D02*
X-6858000Y2540000D01*
X-6281000Y254000D02*
X-6281000Y69000D01*
D32*
X-16764000Y-635000D02*
X-16269400Y-1129600D01*
D31*
X-16269400Y-1129600D02*
X-16205200Y-1129600D01*
X-10795000Y-3175000D02*
X-10329000Y-3175000D01*
X-10922000Y-3048000D02*
X-10795000Y-3175000D01*
X-10180000Y-1892000D02*
X-10180000Y-3026000D01*
X-10180000Y-3026000D02*
X-10329000Y-3175000D01*
X-10439400Y-3098800D02*
X-10227400Y-3098800D01*
X-13830000Y258000D02*
X-15265400Y254002D01*
X-13830000Y-742000D02*
X-14407200Y-742000D01*
X-15062200Y-1397000D02*
X-15937800Y-1397000D01*
X-14407200Y-742000D02*
X-15062200Y-1397000D01*
X-15937800Y-1397000D02*
X-16205200Y-1129600D01*
X-6154000Y1836000D02*
X-6858000Y2540000D01*
X-6344500Y-2979000D02*
X-6413500Y-3048000D01*
X-7366000Y-2654300D02*
X-7366000Y-3942500D01*
X-7366000Y-3942500D02*
X-7308000Y-4000500D01*
X-13830000Y-242000D02*
X-14847000Y-242000D01*
X-14847000Y-242000D02*
X-14986000Y-381000D01*
X-17399000Y2032000D02*
X-17170400Y2223200D01*
X-17170400Y2223200D02*
X-16879000Y2540000D01*
X-17332960Y-3048000D02*
X-17424400Y-3048000D01*
D32*
X-17424400Y-3048000D02*
X-17703800Y-2768600D01*
D31*
X-18042000Y1766800D02*
X-17689600Y1766800D01*
X-17689600Y1766800D02*
X-17399000Y2032000D01*
X-9030000Y258000D02*
X-8322500Y258000D01*
X-7493000Y-571500D02*
X-7493000Y-1028700D01*
X-7810500Y-254000D02*
X-7493000Y-571500D01*
X-7810500Y-254000D02*
X-7810500Y-254000D01*
X-8322500Y258000D02*
X-7810500Y-254000D01*
X-7493000Y-1028700D02*
X-7366000Y-1155700D01*
X-18042000Y1266800D02*
X-13838800Y1266800D01*
X-13838800Y1266800D02*
X-13830000Y1258000D01*
X-13830000Y758000D02*
X-18033200Y758000D01*
X-18033200Y758000D02*
X-18042000Y766800D01*
X-11180000Y-1892000D02*
X-11180000Y-2417000D01*
X-11938000Y-3175000D02*
X-11938000Y-5080000D01*
X-11180000Y-2417000D02*
X-11938000Y-3175000D01*
X-12446000Y-4572000D02*
X-11938000Y-5080000D01*
X-12680000Y-1892000D02*
X-12680000Y-3282000D01*
X-12680000Y-3282000D02*
X-14478000Y-5080000D01*
X-14478000Y-4546600D02*
X-14478000Y-5080000D01*
X-9030000Y-242000D02*
X-8521000Y-242000D01*
X-8255000Y-4254500D02*
X-9080500Y-5080000D01*
X-8255000Y-508000D02*
X-8255000Y-4254500D01*
X-8521000Y-242000D02*
X-8255000Y-508000D01*
X-9080500Y-5080000D02*
X-9398000Y-5080000D01*
X-11680000Y2908000D02*
X-11680000Y3552000D01*
X-10795000Y3683000D02*
X-9398000Y5080000D01*
X-11549000Y3683000D02*
X-10795000Y3683000D01*
X-11680000Y3552000D02*
X-11549000Y3683000D01*
X-12180000Y2908000D02*
X-12180000Y4838000D01*
X-12180000Y4838000D02*
X-11938000Y5080000D01*
X-11938000Y4929000D02*
X-11938000Y5080000D01*
X-12680000Y2908000D02*
X-12680000Y3536000D01*
X-12680000Y3536000D02*
X-14224000Y5080000D01*
X-14224000Y5080000D02*
X-14478000Y5080000D01*
X-14224000Y5080000D02*
X-14478000Y5080000D01*
X-13180000Y2908000D02*
X-13180000Y3147000D01*
X-13180000Y3147000D02*
X-13716000Y3683000D01*
X-13716000Y3683000D02*
X-15113000Y3683000D01*
X-15113000Y3683000D02*
X-16510000Y5080000D01*
X-16510000Y5080000D02*
X-17018000Y5080000D01*
X-17018000Y5080000D02*
X-16383000Y5080000D01*
X-16637000Y5080000D02*
X-17018000Y5080000D01*
X-16637000Y5080000D02*
X-17018000Y5080000D01*
X-3810000Y0D02*
X0Y0D01*
X-7181000Y254000D02*
X-7181000Y704000D01*
X-7181000Y704000D02*
X-7239000Y762000D01*
X-9030000Y758000D02*
X-8505000Y758000D01*
X-8505000Y758000D02*
X-7239000Y762000D01*
D32*
X-18735040Y-3048000D02*
X-22786000Y-3048000D01*
D31*
X-22786000Y-3048000D02*
X-23548000Y-3810000D01*
X-19042000Y1266800D02*
X-22479000Y1270000D01*
X-22479000Y1270000D02*
X-22512200Y1303200D01*
X-22747000Y1851000D02*
X-22512200Y1303200D01*
X-19042000Y779500D02*
X-19042000Y135000D01*
X-19042000Y135000D02*
X-20477000Y-1300000D01*
X-20477000Y-1300000D02*
X-23298000Y-1300000D01*
D33*
G36*
X3695241Y4848702D02*
X3694760Y4297715D01*
X3905169Y3788485D01*
X4294436Y3398539D01*
X4803298Y3187241D01*
X5354285Y3186760D01*
X5842000Y3388279D01*
X5842000Y-5320000D01*
X-7910391Y-5320000D01*
X-7899400Y-5264745D01*
X-7899400Y-4973702D01*
X-7797162Y-4871464D01*
X-7759890Y-4896931D01*
X-7508000Y-4947940D01*
X-7108000Y-4947940D01*
X-6872683Y-4903662D01*
X-6861021Y-4896158D01*
X-6859890Y-4896931D01*
X-6608000Y-4947940D01*
X-6208000Y-4947940D01*
X-5972683Y-4903662D01*
X-5756559Y-4764590D01*
X-5611569Y-4552390D01*
X-5560560Y-4300500D01*
X-5560560Y-3700500D01*
X-5595323Y-3515749D01*
X-5478662Y-3234799D01*
X-5478338Y-2862833D01*
X-5620383Y-2519057D01*
X-5768600Y-2370581D01*
X-5768600Y-1016934D01*
X-5135890Y-1016934D01*
X-4355780Y-2904944D01*
X-2912542Y-4350703D01*
X-1025896Y-5134107D01*
X1016934Y-5135890D01*
X2904944Y-4355780D01*
X4350703Y-2912542D01*
X5134107Y-1025896D01*
X5135890Y1016934D01*
X4355780Y2904944D01*
X2912542Y4350703D01*
X1025896Y5134107D01*
X-1016934Y5135890D01*
X-2904944Y4355780D01*
X-4350703Y2912542D01*
X-5134107Y1025896D01*
X-5135890Y-1016934D01*
X-5768600Y-1016934D01*
X-5768600Y-599560D01*
X-5629559Y-510090D01*
X-5484569Y-297890D01*
X-5433560Y-46000D01*
X-5433560Y554000D01*
X-5477838Y789317D01*
X-5540000Y885919D01*
X-5540000Y963747D01*
X-5390559Y1059910D01*
X-5245569Y1272110D01*
X-5194560Y1524000D01*
X-5194560Y3556000D01*
X-5238838Y3791317D01*
X-5256354Y3818538D01*
X-5207000Y3937690D01*
X-5207000Y4794250D01*
X-5365750Y4953000D01*
X-6731000Y4953000D01*
X-6731000Y4933000D01*
X-6985000Y4933000D01*
X-6985000Y4953000D01*
X-7005000Y4953000D01*
X-7005000Y5207000D01*
X-6985000Y5207000D01*
X-6985000Y5227000D01*
X-6731000Y5227000D01*
X-6731000Y5207000D01*
X-5365750Y5207000D01*
X-5252750Y5320000D01*
X3890941Y5320000D01*
X3695241Y4848702D01*
X3695241Y4848702D01*
G37*
X3695241Y4848702D02*
X3694760Y4297715D01*
X3905169Y3788485D01*
X4294436Y3398539D01*
X4803298Y3187241D01*
X5354285Y3186760D01*
X5842000Y3388279D01*
X5842000Y-5320000D01*
X-7910391Y-5320000D01*
X-7899400Y-5264745D01*
X-7899400Y-4973702D01*
X-7797162Y-4871464D01*
X-7759890Y-4896931D01*
X-7508000Y-4947940D01*
X-7108000Y-4947940D01*
X-6872683Y-4903662D01*
X-6861021Y-4896158D01*
X-6859890Y-4896931D01*
X-6608000Y-4947940D01*
X-6208000Y-4947940D01*
X-5972683Y-4903662D01*
X-5756559Y-4764590D01*
X-5611569Y-4552390D01*
X-5560560Y-4300500D01*
X-5560560Y-3700500D01*
X-5595323Y-3515749D01*
X-5478662Y-3234799D01*
X-5478338Y-2862833D01*
X-5620383Y-2519057D01*
X-5768600Y-2370581D01*
X-5768600Y-1016934D01*
X-5135890Y-1016934D01*
X-4355780Y-2904944D01*
X-2912542Y-4350703D01*
X-1025896Y-5134107D01*
X1016934Y-5135890D01*
X2904944Y-4355780D01*
X4350703Y-2912542D01*
X5134107Y-1025896D01*
X5135890Y1016934D01*
X4355780Y2904944D01*
X2912542Y4350703D01*
X1025896Y5134107D01*
X-1016934Y5135890D01*
X-2904944Y4355780D01*
X-4350703Y2912542D01*
X-5134107Y1025896D01*
X-5135890Y-1016934D01*
X-5768600Y-1016934D01*
X-5768600Y-599560D01*
X-5629559Y-510090D01*
X-5484569Y-297890D01*
X-5433560Y-46000D01*
X-5433560Y554000D01*
X-5477838Y789317D01*
X-5540000Y885919D01*
X-5540000Y963747D01*
X-5390559Y1059910D01*
X-5245569Y1272110D01*
X-5194560Y1524000D01*
X-5194560Y3556000D01*
X-5238838Y3791317D01*
X-5256354Y3818538D01*
X-5207000Y3937690D01*
X-5207000Y4794250D01*
X-5365750Y4953000D01*
X-6731000Y4953000D01*
X-6731000Y4933000D01*
X-6985000Y4933000D01*
X-6985000Y4953000D01*
X-7005000Y4953000D01*
X-7005000Y5207000D01*
X-6985000Y5207000D01*
X-6985000Y5227000D01*
X-6731000Y5227000D01*
X-6731000Y5207000D01*
X-5365750Y5207000D01*
X-5252750Y5320000D01*
X3890941Y5320000D01*
X3695241Y4848702D01*
G36*
X-18262600Y-4794250D02*
X-18103850Y-4953000D01*
X-16891000Y-4953000D01*
X-16891000Y-4933000D01*
X-16637000Y-4933000D01*
X-16637000Y-4953000D01*
X-16617000Y-4953000D01*
X-16617000Y-5207000D01*
X-16637000Y-5207000D01*
X-16637000Y-5227000D01*
X-16891000Y-5227000D01*
X-16891000Y-5207000D01*
X-18103850Y-5207000D01*
X-18216850Y-5320000D01*
X-19245607Y-5320000D01*
X-19096559Y-5224090D01*
X-18951569Y-5011890D01*
X-18900560Y-4760000D01*
X-18900560Y-4294880D01*
X-18435320Y-4294880D01*
X-18262600Y-4262380D01*
X-18262600Y-4794250D01*
X-18262600Y-4794250D01*
G37*
X-18262600Y-4794250D02*
X-18103850Y-4953000D01*
X-16891000Y-4953000D01*
X-16891000Y-4933000D01*
X-16637000Y-4933000D01*
X-16637000Y-4953000D01*
X-16617000Y-4953000D01*
X-16617000Y-5207000D01*
X-16637000Y-5207000D01*
X-16637000Y-5227000D01*
X-16891000Y-5227000D01*
X-16891000Y-5207000D01*
X-18103850Y-5207000D01*
X-18216850Y-5320000D01*
X-19245607Y-5320000D01*
X-19096559Y-5224090D01*
X-18951569Y-5011890D01*
X-18900560Y-4760000D01*
X-18900560Y-4294880D01*
X-18435320Y-4294880D01*
X-18262600Y-4262380D01*
X-18262600Y-4794250D01*
G36*
X-13957002Y-2002000D02*
X-13952440Y-2002000D01*
X-13952440Y-2192000D01*
X-13908162Y-2427317D01*
X-13769090Y-2643441D01*
X-13556890Y-2788431D01*
X-13440000Y-2812102D01*
X-13440000Y-2967198D01*
X-13970421Y-3497619D01*
X-14478000Y-3396655D01*
X-15051489Y-3510729D01*
X-15357546Y-3715230D01*
X-15362073Y-3704302D01*
X-15490262Y-3576112D01*
X-15470501Y-3567927D01*
X-15291873Y-3389298D01*
X-15195200Y-3155909D01*
X-15195200Y-2915350D01*
X-15353950Y-2756600D01*
X-16078200Y-2756600D01*
X-16078200Y-2776600D01*
X-16332200Y-2776600D01*
X-16332200Y-2756600D01*
X-16352200Y-2756600D01*
X-16352200Y-2502600D01*
X-16332200Y-2502600D01*
X-16332200Y-2482600D01*
X-16078200Y-2482600D01*
X-16078200Y-2502600D01*
X-15353950Y-2502600D01*
X-15195200Y-2343850D01*
X-15195200Y-2157000D01*
X-15062200Y-2157000D01*
X-14771361Y-2099148D01*
X-14524799Y-1934401D01*
X-14508604Y-1918206D01*
X-14306309Y-2002000D01*
X-14115750Y-2002000D01*
X-13957002Y-1843252D01*
X-13957002Y-2002000D01*
X-13957002Y-2002000D01*
G37*
X-13957002Y-2002000D02*
X-13952440Y-2002000D01*
X-13952440Y-2192000D01*
X-13908162Y-2427317D01*
X-13769090Y-2643441D01*
X-13556890Y-2788431D01*
X-13440000Y-2812102D01*
X-13440000Y-2967198D01*
X-13970421Y-3497619D01*
X-14478000Y-3396655D01*
X-15051489Y-3510729D01*
X-15357546Y-3715230D01*
X-15362073Y-3704302D01*
X-15490262Y-3576112D01*
X-15470501Y-3567927D01*
X-15291873Y-3389298D01*
X-15195200Y-3155909D01*
X-15195200Y-2915350D01*
X-15353950Y-2756600D01*
X-16078200Y-2756600D01*
X-16078200Y-2776600D01*
X-16332200Y-2776600D01*
X-16332200Y-2756600D01*
X-16352200Y-2756600D01*
X-16352200Y-2502600D01*
X-16332200Y-2502600D01*
X-16332200Y-2482600D01*
X-16078200Y-2482600D01*
X-16078200Y-2502600D01*
X-15353950Y-2502600D01*
X-15195200Y-2343850D01*
X-15195200Y-2157000D01*
X-15062200Y-2157000D01*
X-14771361Y-2099148D01*
X-14524799Y-1934401D01*
X-14508604Y-1918206D01*
X-14306309Y-2002000D01*
X-14115750Y-2002000D01*
X-13957002Y-1843252D01*
X-13957002Y-2002000D01*
G36*
X-9102000Y-3050000D02*
X-9082000Y-3050000D01*
X-9082000Y-3300000D01*
X-9102000Y-3300000D01*
X-9102000Y-3322000D01*
X-9356000Y-3322000D01*
X-9356000Y-3300000D01*
X-9376000Y-3300000D01*
X-9376000Y-3050000D01*
X-9356000Y-3050000D01*
X-9356000Y-3028000D01*
X-9102000Y-3028000D01*
X-9102000Y-3050000D01*
X-9102000Y-3050000D01*
G37*
X-9102000Y-3050000D02*
X-9082000Y-3050000D01*
X-9082000Y-3300000D01*
X-9102000Y-3300000D01*
X-9102000Y-3322000D01*
X-9356000Y-3322000D01*
X-9356000Y-3300000D01*
X-9376000Y-3300000D01*
X-9376000Y-3050000D01*
X-9356000Y-3050000D01*
X-9356000Y-3028000D01*
X-9102000Y-3028000D01*
X-9102000Y-3050000D01*
G36*
X-18677440Y-766000D02*
X-18633162Y-1001317D01*
X-18617661Y-1025406D01*
X-18665000Y-1139691D01*
X-18665000Y-1280250D01*
X-18506250Y-1439000D01*
X-17905000Y-1439000D01*
X-17905000Y-1419000D01*
X-17655000Y-1419000D01*
X-17655000Y-1439000D01*
X-17633000Y-1439000D01*
X-17633000Y-1693000D01*
X-17655000Y-1693000D01*
X-17655000Y-1713000D01*
X-17905000Y-1713000D01*
X-17905000Y-1693000D01*
X-18506250Y-1693000D01*
X-18614370Y-1801120D01*
X-18900560Y-1801120D01*
X-18900560Y-798362D01*
X-18677440Y-575242D01*
X-18677440Y-766000D01*
X-18677440Y-766000D01*
G37*
X-18677440Y-766000D02*
X-18633162Y-1001317D01*
X-18617661Y-1025406D01*
X-18665000Y-1139691D01*
X-18665000Y-1280250D01*
X-18506250Y-1439000D01*
X-17905000Y-1439000D01*
X-17905000Y-1419000D01*
X-17655000Y-1419000D01*
X-17655000Y-1439000D01*
X-17633000Y-1439000D01*
X-17633000Y-1693000D01*
X-17655000Y-1693000D01*
X-17655000Y-1713000D01*
X-17905000Y-1713000D01*
X-17905000Y-1693000D01*
X-18506250Y-1693000D01*
X-18614370Y-1801120D01*
X-18900560Y-1801120D01*
X-18900560Y-798362D01*
X-18677440Y-575242D01*
X-18677440Y-766000D01*
G36*
X-15252000Y2667000D02*
X-15232000Y2667000D01*
X-15232000Y2413000D01*
X-15252000Y2413000D01*
X-15252000Y2393000D01*
X-15506000Y2393000D01*
X-15506000Y2413000D01*
X-15526000Y2413000D01*
X-15526000Y2667000D01*
X-15506000Y2667000D01*
X-15506000Y2687000D01*
X-15252000Y2687000D01*
X-15252000Y2667000D01*
X-15252000Y2667000D01*
G37*
X-15252000Y2667000D02*
X-15232000Y2667000D01*
X-15232000Y2413000D01*
X-15252000Y2413000D01*
X-15252000Y2393000D01*
X-15506000Y2393000D01*
X-15506000Y2413000D01*
X-15526000Y2413000D01*
X-15526000Y2667000D01*
X-15506000Y2667000D01*
X-15506000Y2687000D01*
X-15252000Y2687000D01*
X-15252000Y2667000D01*
G36*
X-18516600Y5264745D02*
X-18516600Y4895255D01*
X-18402526Y4321766D01*
X-18077670Y3835585D01*
X-17591489Y3510729D01*
X-17541363Y3500758D01*
X-17730441Y3379090D01*
X-17875431Y3166890D01*
X-17901253Y3039378D01*
X-18192510Y3039631D01*
X-18291898Y2998565D01*
X-18390163Y3039368D01*
X-18692510Y3039631D01*
X-18913000Y2948527D01*
X-18913000Y3524250D01*
X-19071750Y3683000D01*
X-19685000Y3683000D01*
X-19685000Y3937000D01*
X-19071750Y3937000D01*
X-18913000Y4095750D01*
X-18913000Y4886309D01*
X-19009673Y5119698D01*
X-19188301Y5298327D01*
X-19240624Y5320000D01*
X-18505609Y5320000D01*
X-18516600Y5264745D01*
X-18516600Y5264745D01*
G37*
X-18516600Y5264745D02*
X-18516600Y4895255D01*
X-18402526Y4321766D01*
X-18077670Y3835585D01*
X-17591489Y3510729D01*
X-17541363Y3500758D01*
X-17730441Y3379090D01*
X-17875431Y3166890D01*
X-17901253Y3039378D01*
X-18192510Y3039631D01*
X-18291898Y2998565D01*
X-18390163Y3039368D01*
X-18692510Y3039631D01*
X-18913000Y2948527D01*
X-18913000Y3524250D01*
X-19071750Y3683000D01*
X-19685000Y3683000D01*
X-19685000Y3937000D01*
X-19071750Y3937000D01*
X-18913000Y4095750D01*
X-18913000Y4886309D01*
X-19009673Y5119698D01*
X-19188301Y5298327D01*
X-19240624Y5320000D01*
X-18505609Y5320000D01*
X-18516600Y5264745D01*
M02*
