G04 #@! TF.FileFunction,Legend,Top*
%FSLAX46Y46*%
G04 Gerber Fmt 4.6, Leading zero omitted, Abs format (unit mm)*
G04 Created by KiCad (PCBNEW 4.0.0~rc1a-stable) date Sat 16 Jan 2016 09:07:18 PM JST*
%MOMM*%
G01*
G04 APERTURE LIST*
%ADD10C,0.100000*%
%ADD11C,0.800000*%
%ADD12C,0.600000*%
%ADD13C,0.200000*%
%ADD14C,0.150000*%
G04 APERTURE END LIST*
D10*
D11*
X1778000Y-1270000D02*
X1778000Y-2032000D01*
X1778000Y2032000D02*
X1778000Y1270000D01*
D12*
X567961Y0D02*
G75*
G03X567961Y0I-567961J0D01*
G01*
D13*
X-1270000Y-1016000D02*
X-1016000Y-1270000D01*
X-1270000Y-254000D02*
X-1270000Y-1016000D01*
X-1016000Y0D02*
X-1270000Y-254000D01*
X-762000Y0D02*
X-1016000Y0D01*
X-1270000Y1016000D02*
X-1016000Y1270000D01*
X-1270000Y254000D02*
X-1270000Y1016000D01*
X-1016000Y0D02*
X-1270000Y254000D01*
X-762000Y0D02*
X-1016000Y0D01*
X967803Y0D02*
G75*
G03X967803Y0I-1983803J0D01*
G01*
X6127269Y4572000D02*
G75*
G03X6127269Y4572000I-1047269J0D01*
G01*
X6127269Y-4572000D02*
G75*
G03X6127269Y-4572000I-1047269J0D01*
G01*
D14*
X-8128000Y-3810000D02*
X-18034000Y-3810000D01*
X-18034000Y-3810000D02*
X-18034000Y-6096000D01*
X-8128000Y-6096000D02*
X-8128000Y-3810000D01*
X-18389600Y-3708400D02*
X-17703800Y-3708400D01*
X-18389600Y-2387600D02*
X-17703800Y-2387600D01*
X-9529000Y-2700000D02*
X-10029000Y-2700000D01*
X-10029000Y-3650000D02*
X-9529000Y-3650000D01*
X-16479000Y3140000D02*
X-15779000Y3140000D01*
X-15779000Y1940000D02*
X-16479000Y1940000D01*
X-17305000Y-1266000D02*
X-17305000Y-766000D01*
X-18255000Y-766000D02*
X-18255000Y-1266000D01*
X-15605200Y-1529600D02*
X-15605200Y-2229600D01*
X-16805200Y-2229600D02*
X-16805200Y-1529600D01*
X-6981000Y-271000D02*
X-6481000Y-271000D01*
X-6481000Y779000D02*
X-6981000Y779000D01*
X-6608000Y-3475500D02*
X-7108000Y-3475500D01*
X-7108000Y-4525500D02*
X-6608000Y-4525500D01*
X-7916000Y-805000D02*
X-7916000Y-2705000D01*
X-6816000Y-805000D02*
X-6816000Y-2705000D01*
X-7366000Y-1705000D02*
X-7366000Y-2155000D01*
X-7116000Y-1655000D02*
X-7616000Y-1655000D01*
X-7366000Y-1655000D02*
X-7116000Y-1905000D01*
X-7116000Y-1905000D02*
X-7616000Y-1905000D01*
X-7616000Y-1905000D02*
X-7366000Y-1655000D01*
X-8128000Y3810000D02*
X-8382000Y3810000D01*
X-5334000Y3810000D02*
X-5588000Y3810000D01*
X-8128000Y3810000D02*
X-8128000Y6096000D01*
X-8408000Y990000D02*
X-8408000Y3810000D01*
X-5308000Y3810000D02*
X-5308000Y990000D01*
X-5308000Y990000D02*
X-8408000Y990000D01*
X-5588000Y3810000D02*
X-5588000Y6096000D01*
X-8128000Y3810000D02*
X-18288000Y3810000D01*
X-18288000Y6096000D02*
X-18288000Y3810000D01*
X-8128000Y3810000D02*
X-8128000Y6096000D01*
X-8805000Y3133000D02*
X-8805000Y2608000D01*
X-14055000Y-2117000D02*
X-14055000Y-1592000D01*
X-8805000Y-2117000D02*
X-8805000Y-1592000D01*
X-14055000Y3133000D02*
X-13530000Y3133000D01*
X-14055000Y-2117000D02*
X-13530000Y-2117000D01*
X-8805000Y-2117000D02*
X-9330000Y-2117000D01*
X-8805000Y3133000D02*
X-9330000Y3133000D01*
X-18997279Y2279500D02*
G75*
G03X-18997279Y2279500I-44721J0D01*
G01*
X-19348200Y2565700D02*
X-18542000Y2565700D01*
X-17735800Y1524500D02*
X-17735800Y483300D01*
X-17735800Y483300D02*
X-18542000Y483300D01*
X-19348200Y1524500D02*
X-19348200Y2565700D01*
X-19788095Y-5532381D02*
X-19788095Y-4532381D01*
X-19407142Y-4532381D01*
X-19311904Y-4580000D01*
X-19264285Y-4627619D01*
X-19216666Y-4722857D01*
X-19216666Y-4865714D01*
X-19264285Y-4960952D01*
X-19311904Y-5008571D01*
X-19407142Y-5056190D01*
X-19788095Y-5056190D01*
X-18835714Y-4627619D02*
X-18788095Y-4580000D01*
X-18692857Y-4532381D01*
X-18454761Y-4532381D01*
X-18359523Y-4580000D01*
X-18311904Y-4627619D01*
X-18264285Y-4722857D01*
X-18264285Y-4818095D01*
X-18311904Y-4960952D01*
X-18883333Y-5532381D01*
X-18264285Y-5532381D01*
X-20391333Y-1706571D02*
X-20724667Y-1706571D01*
X-20724667Y-2230381D02*
X-20724667Y-1230381D01*
X-20248476Y-1230381D01*
X-19534190Y-1706571D02*
X-19391333Y-1754190D01*
X-19343714Y-1801810D01*
X-19296095Y-1897048D01*
X-19296095Y-2039905D01*
X-19343714Y-2135143D01*
X-19391333Y-2182762D01*
X-19486571Y-2230381D01*
X-19867524Y-2230381D01*
X-19867524Y-1230381D01*
X-19534190Y-1230381D01*
X-19438952Y-1278000D01*
X-19391333Y-1325619D01*
X-19343714Y-1420857D01*
X-19343714Y-1516095D01*
X-19391333Y-1611333D01*
X-19438952Y-1658952D01*
X-19534190Y-1706571D01*
X-19867524Y-1706571D01*
X-18343714Y-2230381D02*
X-18915143Y-2230381D01*
X-18629429Y-2230381D02*
X-18629429Y-1230381D01*
X-18724667Y-1373238D01*
X-18819905Y-1468476D01*
X-18915143Y-1516095D01*
X-12104666Y-3405143D02*
X-12152285Y-3452762D01*
X-12295142Y-3500381D01*
X-12390380Y-3500381D01*
X-12533238Y-3452762D01*
X-12628476Y-3357524D01*
X-12676095Y-3262286D01*
X-12723714Y-3071810D01*
X-12723714Y-2928952D01*
X-12676095Y-2738476D01*
X-12628476Y-2643238D01*
X-12533238Y-2548000D01*
X-12390380Y-2500381D01*
X-12295142Y-2500381D01*
X-12152285Y-2548000D01*
X-12104666Y-2595619D01*
X-11247523Y-2833714D02*
X-11247523Y-3500381D01*
X-11485619Y-2452762D02*
X-11723714Y-3167048D01*
X-11104666Y-3167048D01*
X-4063905Y-4278381D02*
X-3492476Y-4278381D01*
X-3778191Y-5278381D02*
X-3778191Y-4278381D01*
X-2635333Y-5278381D02*
X-3206762Y-5278381D01*
X-2921048Y-5278381D02*
X-2921048Y-4278381D01*
X-3016286Y-4421238D01*
X-3111524Y-4516476D01*
X-3206762Y-4564095D01*
X-15406666Y912857D02*
X-15454285Y865238D01*
X-15597142Y817619D01*
X-15692380Y817619D01*
X-15835238Y865238D01*
X-15930476Y960476D01*
X-15978095Y1055714D01*
X-16025714Y1246190D01*
X-16025714Y1389048D01*
X-15978095Y1579524D01*
X-15930476Y1674762D01*
X-15835238Y1770000D01*
X-15692380Y1817619D01*
X-15597142Y1817619D01*
X-15454285Y1770000D01*
X-15406666Y1722381D01*
X-14454285Y817619D02*
X-15025714Y817619D01*
X-14740000Y817619D02*
X-14740000Y1817619D01*
X-14835238Y1674762D01*
X-14930476Y1579524D01*
X-15025714Y1531905D01*
X-19216666Y-611143D02*
X-19264285Y-658762D01*
X-19407142Y-706381D01*
X-19502380Y-706381D01*
X-19645238Y-658762D01*
X-19740476Y-563524D01*
X-19788095Y-468286D01*
X-19835714Y-277810D01*
X-19835714Y-134952D01*
X-19788095Y55524D01*
X-19740476Y150762D01*
X-19645238Y246000D01*
X-19502380Y293619D01*
X-19407142Y293619D01*
X-19264285Y246000D01*
X-19216666Y198381D01*
X-18883333Y293619D02*
X-18264285Y293619D01*
X-18597619Y-87333D01*
X-18454761Y-87333D01*
X-18359523Y-134952D01*
X-18311904Y-182571D01*
X-18264285Y-277810D01*
X-18264285Y-515905D01*
X-18311904Y-611143D01*
X-18359523Y-658762D01*
X-18454761Y-706381D01*
X-18740476Y-706381D01*
X-18835714Y-658762D01*
X-18883333Y-611143D01*
X-14898666Y-3405143D02*
X-14946285Y-3452762D01*
X-15089142Y-3500381D01*
X-15184380Y-3500381D01*
X-15327238Y-3452762D01*
X-15422476Y-3357524D01*
X-15470095Y-3262286D01*
X-15517714Y-3071810D01*
X-15517714Y-2928952D01*
X-15470095Y-2738476D01*
X-15422476Y-2643238D01*
X-15327238Y-2548000D01*
X-15184380Y-2500381D01*
X-15089142Y-2500381D01*
X-14946285Y-2548000D01*
X-14898666Y-2595619D01*
X-14517714Y-2595619D02*
X-14470095Y-2548000D01*
X-14374857Y-2500381D01*
X-14136761Y-2500381D01*
X-14041523Y-2548000D01*
X-13993904Y-2595619D01*
X-13946285Y-2690857D01*
X-13946285Y-2786095D01*
X-13993904Y-2928952D01*
X-14565333Y-3500381D01*
X-13946285Y-3500381D01*
X-5754666Y-1468381D02*
X-6088000Y-992190D01*
X-6326095Y-1468381D02*
X-6326095Y-468381D01*
X-5945142Y-468381D01*
X-5849904Y-516000D01*
X-5802285Y-563619D01*
X-5754666Y-658857D01*
X-5754666Y-801714D01*
X-5802285Y-896952D01*
X-5849904Y-944571D01*
X-5945142Y-992190D01*
X-6326095Y-992190D01*
X-5373714Y-563619D02*
X-5326095Y-516000D01*
X-5230857Y-468381D01*
X-4992761Y-468381D01*
X-4897523Y-516000D01*
X-4849904Y-563619D01*
X-4802285Y-658857D01*
X-4802285Y-754095D01*
X-4849904Y-896952D01*
X-5421333Y-1468381D01*
X-4802285Y-1468381D01*
X-5500666Y-5278381D02*
X-5834000Y-4802190D01*
X-6072095Y-5278381D02*
X-6072095Y-4278381D01*
X-5691142Y-4278381D01*
X-5595904Y-4326000D01*
X-5548285Y-4373619D01*
X-5500666Y-4468857D01*
X-5500666Y-4611714D01*
X-5548285Y-4706952D01*
X-5595904Y-4754571D01*
X-5691142Y-4802190D01*
X-6072095Y-4802190D01*
X-4548285Y-5278381D02*
X-5119714Y-5278381D01*
X-4834000Y-5278381D02*
X-4834000Y-4278381D01*
X-4929238Y-4421238D01*
X-5024476Y-4516476D01*
X-5119714Y-4564095D01*
X-6326095Y-3246381D02*
X-6326095Y-2246381D01*
X-6088000Y-2246381D01*
X-5945142Y-2294000D01*
X-5849904Y-2389238D01*
X-5802285Y-2484476D01*
X-5754666Y-2674952D01*
X-5754666Y-2817810D01*
X-5802285Y-3008286D01*
X-5849904Y-3103524D01*
X-5945142Y-3198762D01*
X-6088000Y-3246381D01*
X-6326095Y-3246381D01*
X-4802285Y-3246381D02*
X-5373714Y-3246381D01*
X-5088000Y-3246381D02*
X-5088000Y-2246381D01*
X-5183238Y-2389238D01*
X-5278476Y-2484476D01*
X-5373714Y-2532095D01*
X-5056095Y4373619D02*
X-5056095Y5373619D01*
X-4675142Y5373619D01*
X-4579904Y5326000D01*
X-4532285Y5278381D01*
X-4484666Y5183143D01*
X-4484666Y5040286D01*
X-4532285Y4945048D01*
X-4579904Y4897429D01*
X-4675142Y4849810D01*
X-5056095Y4849810D01*
X-4151333Y5373619D02*
X-3532285Y5373619D01*
X-3865619Y4992667D01*
X-3722761Y4992667D01*
X-3627523Y4945048D01*
X-3579904Y4897429D01*
X-3532285Y4802190D01*
X-3532285Y4564095D01*
X-3579904Y4468857D01*
X-3627523Y4421238D01*
X-3722761Y4373619D01*
X-4008476Y4373619D01*
X-4103714Y4421238D01*
X-4151333Y4468857D01*
X-19788095Y2849619D02*
X-19788095Y3849619D01*
X-19407142Y3849619D01*
X-19311904Y3802000D01*
X-19264285Y3754381D01*
X-19216666Y3659143D01*
X-19216666Y3516286D01*
X-19264285Y3421048D01*
X-19311904Y3373429D01*
X-19407142Y3325810D01*
X-19788095Y3325810D01*
X-18359523Y3516286D02*
X-18359523Y2849619D01*
X-18597619Y3897238D02*
X-18835714Y3182952D01*
X-18216666Y3182952D01*
X-15747905Y293619D02*
X-15747905Y-515905D01*
X-15700286Y-611143D01*
X-15652667Y-658762D01*
X-15557429Y-706381D01*
X-15366952Y-706381D01*
X-15271714Y-658762D01*
X-15224095Y-611143D01*
X-15176476Y-515905D01*
X-15176476Y293619D01*
X-14176476Y-706381D02*
X-14747905Y-706381D01*
X-14462191Y-706381D02*
X-14462191Y293619D01*
X-14557429Y150762D01*
X-14652667Y55524D01*
X-14747905Y7905D01*
X-17525905Y801619D02*
X-17525905Y-7905D01*
X-17478286Y-103143D01*
X-17430667Y-150762D01*
X-17335429Y-198381D01*
X-17144952Y-198381D01*
X-17049714Y-150762D01*
X-17002095Y-103143D01*
X-16954476Y-7905D01*
X-16954476Y801619D01*
X-16525905Y706381D02*
X-16478286Y754000D01*
X-16383048Y801619D01*
X-16144952Y801619D01*
X-16049714Y754000D01*
X-16002095Y706381D01*
X-15954476Y611143D01*
X-15954476Y515905D01*
X-16002095Y373048D01*
X-16573524Y-198381D01*
X-15954476Y-198381D01*
M02*
