G04 #@! TF.FileFunction,Copper,L2,Bot,Signal*
%FSLAX46Y46*%
G04 Gerber Fmt 4.6, Leading zero omitted, Abs format (unit mm)*
G04 Created by KiCad (PCBNEW 4.0.0~rc1a-stable) date Sat 16 Jan 2016 09:07:18 PM JST*
%MOMM*%
G01*
G04 APERTURE LIST*
%ADD10C,0.100000*%
%ADD11R,1.727200X2.032000*%
%ADD12O,1.727200X2.032000*%
%ADD13R,2.032000X2.032000*%
%ADD14C,0.600000*%
%ADD15C,0.250000*%
%ADD16C,0.350000*%
%ADD17C,0.254000*%
G04 APERTURE END LIST*
D10*
D11*
X-16764000Y-5080000D03*
D12*
X-11938000Y-5080000D03*
X-14478000Y-5080000D03*
X-9398000Y-5080000D03*
D13*
X-6858000Y2540000D03*
X-6858000Y5080000D03*
D12*
X-9398000Y5080000D03*
X-11938000Y5080000D03*
X-14478000Y5080000D03*
X-17018000Y5080000D03*
D14*
X-19939000Y3810000D03*
X-8902700Y-3556000D03*
X-16764000Y-635000D03*
X-10922000Y-3048000D03*
X-6413500Y-3048000D03*
X-14986000Y-381000D03*
X-17703800Y-2768600D03*
X-17399000Y2032000D03*
X-3810000Y0D03*
X-7239000Y762000D03*
D15*
X-8902700Y-3556000D02*
X-8775700Y-3683000D01*
X-8775700Y-3683000D02*
X-15367000Y-3683000D01*
D16*
X-15367000Y-3683000D02*
X-16764000Y-5080000D01*
D15*
X-6858000Y5080000D02*
X-6908800Y5080000D01*
D16*
X-6908800Y5080000D02*
X-8585200Y3403600D01*
D15*
X-17018000Y-5080000D02*
X-17018000Y-4597400D01*
D16*
X-17018000Y-5080000D02*
X-18923000Y-3175000D01*
D15*
X-19939000Y3632200D02*
X-19939000Y3810000D01*
X-18923000Y2921000D02*
X-19939000Y3632200D01*
X-18923000Y2921000D02*
X-18923000Y2921000D01*
X-18923000Y-3175000D02*
X-18923000Y2921000D01*
D16*
X-10922000Y-3048000D02*
X-14351000Y-3048000D01*
X-14351000Y-3048000D02*
X-16764000Y-635000D01*
X-10541000Y-2667000D02*
X-10922000Y-3048000D01*
X-7239000Y-2667000D02*
X-10541000Y-2667000D01*
X-6794500Y-2667000D02*
X-7239000Y-2667000D01*
X-6540500Y-2921000D02*
X-6794500Y-2667000D01*
X-6413500Y-3048000D02*
X-6540500Y-2921000D01*
X-14986000Y-381000D02*
X-16129000Y635000D01*
X-16129000Y635000D02*
X-16764000Y635000D01*
X-17703800Y-2768600D02*
X-17881600Y-2590800D01*
X-17881600Y-2590800D02*
X-17881600Y-482600D01*
X-17881600Y-482600D02*
X-16764000Y635000D01*
X-16764000Y1524000D02*
X-16764000Y635000D01*
X-17399000Y2032000D02*
X-16764000Y1524000D01*
D15*
X-7239000Y762000D02*
X-6858000Y254000D01*
X-6604000Y0D02*
X-3810000Y0D01*
X-6858000Y254000D02*
X-6604000Y0D01*
D17*
G36*
X-18516600Y5264745D02*
X-18516600Y4895255D01*
X-18402526Y4321766D01*
X-18077670Y3835585D01*
X-17591489Y3510729D01*
X-17018000Y3396655D01*
X-16444511Y3510729D01*
X-15958330Y3835585D01*
X-15748000Y4150366D01*
X-15537670Y3835585D01*
X-15051489Y3510729D01*
X-14478000Y3396655D01*
X-13904511Y3510729D01*
X-13418330Y3835585D01*
X-13208000Y4150366D01*
X-12997670Y3835585D01*
X-12511489Y3510729D01*
X-11938000Y3396655D01*
X-11364511Y3510729D01*
X-10878330Y3835585D01*
X-10668000Y4150366D01*
X-10457670Y3835585D01*
X-9971489Y3510729D01*
X-9398000Y3396655D01*
X-8824511Y3510729D01*
X-8484617Y3737839D01*
X-8521440Y3556000D01*
X-8521440Y1524000D01*
X-8477162Y1288683D01*
X-8338090Y1072559D01*
X-8170108Y957782D01*
X-8173838Y948799D01*
X-8174162Y576833D01*
X-8032117Y233057D01*
X-7769327Y-30192D01*
X-7515946Y-135406D01*
X-7466000Y-202000D01*
X-7425569Y-238251D01*
X-7395401Y-283401D01*
X-7141401Y-537401D01*
X-6894840Y-702148D01*
X-6604000Y-760000D01*
X-4372463Y-760000D01*
X-4340327Y-792192D01*
X-3996799Y-934838D01*
X-3624833Y-935162D01*
X-3281057Y-793117D01*
X-3017808Y-530327D01*
X-2875162Y-186799D01*
X-2874838Y185167D01*
X-3016883Y528943D01*
X-3279673Y792192D01*
X-3623201Y934838D01*
X-3995167Y935162D01*
X-4338943Y793117D01*
X-4372118Y760000D01*
X-6287500Y760000D01*
X-6303982Y781976D01*
X-6303900Y876560D01*
X-5842000Y876560D01*
X-5606683Y920838D01*
X-5390559Y1059910D01*
X-5245569Y1272110D01*
X-5194560Y1524000D01*
X-5194560Y3556000D01*
X-5238838Y3791317D01*
X-5256354Y3818538D01*
X-5207000Y3937690D01*
X-5207000Y4794250D01*
X-5365750Y4953000D01*
X-6731000Y4953000D01*
X-6731000Y4933000D01*
X-6985000Y4933000D01*
X-6985000Y4953000D01*
X-7005000Y4953000D01*
X-7005000Y5207000D01*
X-6985000Y5207000D01*
X-6985000Y5227000D01*
X-6731000Y5227000D01*
X-6731000Y5207000D01*
X-5365750Y5207000D01*
X-5252750Y5320000D01*
X3890941Y5320000D01*
X3695241Y4848702D01*
X3694760Y4297715D01*
X3905169Y3788485D01*
X4294436Y3398539D01*
X4803298Y3187241D01*
X5354285Y3186760D01*
X5842000Y3388279D01*
X5842000Y-5320000D01*
X-7910391Y-5320000D01*
X-7899400Y-5264745D01*
X-7899400Y-4895255D01*
X-8013474Y-4321766D01*
X-8338330Y-3835585D01*
X-8824511Y-3510729D01*
X-8994078Y-3477000D01*
X-7247913Y-3477000D01*
X-7206617Y-3576943D01*
X-6943827Y-3840192D01*
X-6600299Y-3982838D01*
X-6228333Y-3983162D01*
X-5884557Y-3841117D01*
X-5621308Y-3578327D01*
X-5478662Y-3234799D01*
X-5478338Y-2862833D01*
X-5620383Y-2519057D01*
X-5883173Y-2255808D01*
X-6185872Y-2130116D01*
X-6221744Y-2094244D01*
X-6335785Y-2018044D01*
X-6484526Y-1918658D01*
X-6794500Y-1857000D01*
X-10541000Y-1857000D01*
X-10850974Y-1918658D01*
X-10982365Y-2006451D01*
X-11113757Y-2094244D01*
X-11150084Y-2130571D01*
X-11410083Y-2238000D01*
X-14015487Y-2238000D01*
X-14937444Y-1316043D01*
X-14800833Y-1316162D01*
X-14457057Y-1174117D01*
X-14193808Y-911327D01*
X-14051162Y-567799D01*
X-14050838Y-195833D01*
X-14192883Y147943D01*
X-14455673Y411192D01*
X-14799201Y553838D01*
X-14818500Y553855D01*
X-15590865Y1240402D01*
X-15707052Y1308523D01*
X-15819026Y1383342D01*
X-15842692Y1388049D01*
X-15863506Y1400253D01*
X-15954000Y1412784D01*
X-15954000Y1524000D01*
X-15962827Y1568375D01*
X-15958955Y1613449D01*
X-15993413Y1722139D01*
X-16015658Y1833974D01*
X-16040792Y1871590D01*
X-16054465Y1914718D01*
X-16127899Y2001954D01*
X-16191244Y2096756D01*
X-16228859Y2121890D01*
X-16257997Y2156504D01*
X-16528034Y2372534D01*
X-16605883Y2560943D01*
X-16868673Y2824192D01*
X-17212201Y2966838D01*
X-17584167Y2967162D01*
X-17927943Y2825117D01*
X-18191192Y2562327D01*
X-18333838Y2218799D01*
X-18334162Y1846833D01*
X-18192117Y1503057D01*
X-17929327Y1239808D01*
X-17585799Y1097162D01*
X-17574000Y1097152D01*
X-17574000Y970513D01*
X-18454356Y90156D01*
X-18629942Y-172626D01*
X-18691600Y-482600D01*
X-18691600Y-2590800D01*
X-18638877Y-2855856D01*
X-18638962Y-2953767D01*
X-18496917Y-3297543D01*
X-18234127Y-3560792D01*
X-18084534Y-3622909D01*
X-18165927Y-3704302D01*
X-18262600Y-3937691D01*
X-18262600Y-4794250D01*
X-18103850Y-4953000D01*
X-16891000Y-4953000D01*
X-16891000Y-3587750D01*
X-17045833Y-3432917D01*
X-16911608Y-3298927D01*
X-16768962Y-2955399D01*
X-16768638Y-2583433D01*
X-16910683Y-2239657D01*
X-17071600Y-2078459D01*
X-17071600Y-1519677D01*
X-16991628Y-1552884D01*
X-15036721Y-3507792D01*
X-15051489Y-3510729D01*
X-15357546Y-3715230D01*
X-15362073Y-3704302D01*
X-15540701Y-3525673D01*
X-15774090Y-3429000D01*
X-16478250Y-3429000D01*
X-16637000Y-3587750D01*
X-16637000Y-4953000D01*
X-16617000Y-4953000D01*
X-16617000Y-5207000D01*
X-16637000Y-5207000D01*
X-16637000Y-5227000D01*
X-16891000Y-5227000D01*
X-16891000Y-5207000D01*
X-18103850Y-5207000D01*
X-18216850Y-5320000D01*
X-20574000Y-5320000D01*
X-20574000Y5320000D01*
X-18505609Y5320000D01*
X-18516600Y5264745D01*
X-18516600Y5264745D01*
G37*
X-18516600Y5264745D02*
X-18516600Y4895255D01*
X-18402526Y4321766D01*
X-18077670Y3835585D01*
X-17591489Y3510729D01*
X-17018000Y3396655D01*
X-16444511Y3510729D01*
X-15958330Y3835585D01*
X-15748000Y4150366D01*
X-15537670Y3835585D01*
X-15051489Y3510729D01*
X-14478000Y3396655D01*
X-13904511Y3510729D01*
X-13418330Y3835585D01*
X-13208000Y4150366D01*
X-12997670Y3835585D01*
X-12511489Y3510729D01*
X-11938000Y3396655D01*
X-11364511Y3510729D01*
X-10878330Y3835585D01*
X-10668000Y4150366D01*
X-10457670Y3835585D01*
X-9971489Y3510729D01*
X-9398000Y3396655D01*
X-8824511Y3510729D01*
X-8484617Y3737839D01*
X-8521440Y3556000D01*
X-8521440Y1524000D01*
X-8477162Y1288683D01*
X-8338090Y1072559D01*
X-8170108Y957782D01*
X-8173838Y948799D01*
X-8174162Y576833D01*
X-8032117Y233057D01*
X-7769327Y-30192D01*
X-7515946Y-135406D01*
X-7466000Y-202000D01*
X-7425569Y-238251D01*
X-7395401Y-283401D01*
X-7141401Y-537401D01*
X-6894840Y-702148D01*
X-6604000Y-760000D01*
X-4372463Y-760000D01*
X-4340327Y-792192D01*
X-3996799Y-934838D01*
X-3624833Y-935162D01*
X-3281057Y-793117D01*
X-3017808Y-530327D01*
X-2875162Y-186799D01*
X-2874838Y185167D01*
X-3016883Y528943D01*
X-3279673Y792192D01*
X-3623201Y934838D01*
X-3995167Y935162D01*
X-4338943Y793117D01*
X-4372118Y760000D01*
X-6287500Y760000D01*
X-6303982Y781976D01*
X-6303900Y876560D01*
X-5842000Y876560D01*
X-5606683Y920838D01*
X-5390559Y1059910D01*
X-5245569Y1272110D01*
X-5194560Y1524000D01*
X-5194560Y3556000D01*
X-5238838Y3791317D01*
X-5256354Y3818538D01*
X-5207000Y3937690D01*
X-5207000Y4794250D01*
X-5365750Y4953000D01*
X-6731000Y4953000D01*
X-6731000Y4933000D01*
X-6985000Y4933000D01*
X-6985000Y4953000D01*
X-7005000Y4953000D01*
X-7005000Y5207000D01*
X-6985000Y5207000D01*
X-6985000Y5227000D01*
X-6731000Y5227000D01*
X-6731000Y5207000D01*
X-5365750Y5207000D01*
X-5252750Y5320000D01*
X3890941Y5320000D01*
X3695241Y4848702D01*
X3694760Y4297715D01*
X3905169Y3788485D01*
X4294436Y3398539D01*
X4803298Y3187241D01*
X5354285Y3186760D01*
X5842000Y3388279D01*
X5842000Y-5320000D01*
X-7910391Y-5320000D01*
X-7899400Y-5264745D01*
X-7899400Y-4895255D01*
X-8013474Y-4321766D01*
X-8338330Y-3835585D01*
X-8824511Y-3510729D01*
X-8994078Y-3477000D01*
X-7247913Y-3477000D01*
X-7206617Y-3576943D01*
X-6943827Y-3840192D01*
X-6600299Y-3982838D01*
X-6228333Y-3983162D01*
X-5884557Y-3841117D01*
X-5621308Y-3578327D01*
X-5478662Y-3234799D01*
X-5478338Y-2862833D01*
X-5620383Y-2519057D01*
X-5883173Y-2255808D01*
X-6185872Y-2130116D01*
X-6221744Y-2094244D01*
X-6335785Y-2018044D01*
X-6484526Y-1918658D01*
X-6794500Y-1857000D01*
X-10541000Y-1857000D01*
X-10850974Y-1918658D01*
X-10982365Y-2006451D01*
X-11113757Y-2094244D01*
X-11150084Y-2130571D01*
X-11410083Y-2238000D01*
X-14015487Y-2238000D01*
X-14937444Y-1316043D01*
X-14800833Y-1316162D01*
X-14457057Y-1174117D01*
X-14193808Y-911327D01*
X-14051162Y-567799D01*
X-14050838Y-195833D01*
X-14192883Y147943D01*
X-14455673Y411192D01*
X-14799201Y553838D01*
X-14818500Y553855D01*
X-15590865Y1240402D01*
X-15707052Y1308523D01*
X-15819026Y1383342D01*
X-15842692Y1388049D01*
X-15863506Y1400253D01*
X-15954000Y1412784D01*
X-15954000Y1524000D01*
X-15962827Y1568375D01*
X-15958955Y1613449D01*
X-15993413Y1722139D01*
X-16015658Y1833974D01*
X-16040792Y1871590D01*
X-16054465Y1914718D01*
X-16127899Y2001954D01*
X-16191244Y2096756D01*
X-16228859Y2121890D01*
X-16257997Y2156504D01*
X-16528034Y2372534D01*
X-16605883Y2560943D01*
X-16868673Y2824192D01*
X-17212201Y2966838D01*
X-17584167Y2967162D01*
X-17927943Y2825117D01*
X-18191192Y2562327D01*
X-18333838Y2218799D01*
X-18334162Y1846833D01*
X-18192117Y1503057D01*
X-17929327Y1239808D01*
X-17585799Y1097162D01*
X-17574000Y1097152D01*
X-17574000Y970513D01*
X-18454356Y90156D01*
X-18629942Y-172626D01*
X-18691600Y-482600D01*
X-18691600Y-2590800D01*
X-18638877Y-2855856D01*
X-18638962Y-2953767D01*
X-18496917Y-3297543D01*
X-18234127Y-3560792D01*
X-18084534Y-3622909D01*
X-18165927Y-3704302D01*
X-18262600Y-3937691D01*
X-18262600Y-4794250D01*
X-18103850Y-4953000D01*
X-16891000Y-4953000D01*
X-16891000Y-3587750D01*
X-17045833Y-3432917D01*
X-16911608Y-3298927D01*
X-16768962Y-2955399D01*
X-16768638Y-2583433D01*
X-16910683Y-2239657D01*
X-17071600Y-2078459D01*
X-17071600Y-1519677D01*
X-16991628Y-1552884D01*
X-15036721Y-3507792D01*
X-15051489Y-3510729D01*
X-15357546Y-3715230D01*
X-15362073Y-3704302D01*
X-15540701Y-3525673D01*
X-15774090Y-3429000D01*
X-16478250Y-3429000D01*
X-16637000Y-3587750D01*
X-16637000Y-4953000D01*
X-16617000Y-4953000D01*
X-16617000Y-5207000D01*
X-16637000Y-5207000D01*
X-16637000Y-5227000D01*
X-16891000Y-5227000D01*
X-16891000Y-5207000D01*
X-18103850Y-5207000D01*
X-18216850Y-5320000D01*
X-20574000Y-5320000D01*
X-20574000Y5320000D01*
X-18505609Y5320000D01*
X-18516600Y5264745D01*
M02*
