G04 #@! TF.FileFunction,Legend,Bot*
%FSLAX46Y46*%
G04 Gerber Fmt 4.6, Leading zero omitted, Abs format (unit mm)*
G04 Created by KiCad (PCBNEW 4.0.0~rc1a-stable) date Sat 16 Jan 2016 09:07:18 PM JST*
%MOMM*%
G01*
G04 APERTURE LIST*
%ADD10C,0.100000*%
%ADD11C,0.300000*%
%ADD12C,0.457200*%
%ADD13C,0.762000*%
%ADD14C,0.152400*%
G04 APERTURE END LIST*
D10*
D11*
X2713000Y4149714D02*
X3113000Y4149714D01*
X3191571Y3521143D02*
X3041571Y4721143D01*
X2470142Y4721143D01*
X2213000Y3578286D02*
X2048714Y3521143D01*
X1763000Y3521143D01*
X1641571Y3578286D01*
X1577285Y3635429D01*
X1505857Y3749714D01*
X1491571Y3864000D01*
X1534428Y3978286D01*
X1584428Y4035429D01*
X1691572Y4092571D01*
X1913000Y4149714D01*
X2020143Y4206857D01*
X2070143Y4264000D01*
X2113000Y4378286D01*
X2098715Y4492571D01*
X2027286Y4606857D01*
X1963000Y4664000D01*
X1841571Y4721143D01*
X1555857Y4721143D01*
X1391571Y4664000D01*
X963000Y3978286D02*
X48714Y3978286D01*
X-944142Y4149714D02*
X-1108428Y4092571D01*
X-1158429Y4035429D01*
X-1201286Y3921143D01*
X-1179857Y3749714D01*
X-1108429Y3635429D01*
X-1044143Y3578286D01*
X-922714Y3521143D01*
X-465571Y3521143D01*
X-615571Y4721143D01*
X-1015571Y4721143D01*
X-1122714Y4664000D01*
X-1172714Y4606857D01*
X-1215571Y4492571D01*
X-1201286Y4378286D01*
X-1129857Y4264000D01*
X-1065571Y4206857D01*
X-944142Y4149714D01*
X-544142Y4149714D01*
X-2144142Y4149714D02*
X-2308428Y4092571D01*
X-2358429Y4035429D01*
X-2401286Y3921143D01*
X-2379857Y3749714D01*
X-2308429Y3635429D01*
X-2244143Y3578286D01*
X-2122714Y3521143D01*
X-1665571Y3521143D01*
X-1815571Y4721143D01*
X-2215571Y4721143D01*
X-2322714Y4664000D01*
X-2372714Y4606857D01*
X-2415571Y4492571D01*
X-2401286Y4378286D01*
X-2329857Y4264000D01*
X-2265571Y4206857D01*
X-2144142Y4149714D01*
X-1744142Y4149714D01*
X-3479857Y4321143D02*
X-3379857Y3521143D01*
X-3251286Y4778286D02*
X-2858428Y3921143D01*
X-3601286Y3921143D01*
X-4265571Y4206857D02*
X-4158428Y4264000D01*
X-4108428Y4321143D01*
X-4065571Y4435429D01*
X-4072713Y4492571D01*
X-4144142Y4606857D01*
X-4208428Y4664000D01*
X-4329857Y4721143D01*
X-4558428Y4721143D01*
X-4665571Y4664000D01*
X-4715571Y4606857D01*
X-4758428Y4492571D01*
X-4751286Y4435429D01*
X-4679857Y4321143D01*
X-4615571Y4264000D01*
X-4494142Y4206857D01*
X-4265571Y4206857D01*
X-4144142Y4149714D01*
X-4079856Y4092571D01*
X-4008428Y3978286D01*
X-3979856Y3749714D01*
X-4022714Y3635429D01*
X-4072714Y3578286D01*
X-4179857Y3521143D01*
X-4408428Y3521143D01*
X-4529857Y3578286D01*
X-4594143Y3635429D01*
X-4665571Y3749714D01*
X-4694143Y3978286D01*
X-4651285Y4092571D01*
X-4601285Y4149714D01*
X-4494142Y4206857D01*
X5090285Y-2686857D02*
X5590285Y-2686857D01*
X5590285Y-3472571D02*
X5590285Y-1972571D01*
X4875999Y-1972571D01*
X4090285Y-3472571D02*
X4233143Y-3401143D01*
X4304571Y-3258286D01*
X4304571Y-1972571D01*
X3661714Y-2472571D02*
X3304571Y-3472571D01*
X2947429Y-2472571D02*
X3304571Y-3472571D01*
X3447429Y-3829714D01*
X3518857Y-3901143D01*
X3661714Y-3972571D01*
X2376000Y-3472571D02*
X2376000Y-2472571D01*
X2376000Y-1972571D02*
X2447429Y-2044000D01*
X2376000Y-2115429D01*
X2304572Y-2044000D01*
X2376000Y-1972571D01*
X2376000Y-2115429D01*
X1661714Y-2472571D02*
X1661714Y-3472571D01*
X1661714Y-2615429D02*
X1590286Y-2544000D01*
X1447428Y-2472571D01*
X1233143Y-2472571D01*
X1090286Y-2544000D01*
X1018857Y-2686857D01*
X1018857Y-3472571D01*
X-338286Y-2472571D02*
X-338286Y-3686857D01*
X-266857Y-3829714D01*
X-195429Y-3901143D01*
X-52572Y-3972571D01*
X161714Y-3972571D01*
X304571Y-3901143D01*
X-338286Y-3401143D02*
X-195429Y-3472571D01*
X90285Y-3472571D01*
X233143Y-3401143D01*
X304571Y-3329714D01*
X376000Y-3186857D01*
X376000Y-2758286D01*
X304571Y-2615429D01*
X233143Y-2544000D01*
X90285Y-2472571D01*
X-195429Y-2472571D01*
X-338286Y-2544000D01*
X-2124000Y-3401143D02*
X-2338286Y-3472571D01*
X-2695429Y-3472571D01*
X-2838286Y-3401143D01*
X-2909715Y-3329714D01*
X-2981143Y-3186857D01*
X-2981143Y-3044000D01*
X-2909715Y-2901143D01*
X-2838286Y-2829714D01*
X-2695429Y-2758286D01*
X-2409715Y-2686857D01*
X-2266857Y-2615429D01*
X-2195429Y-2544000D01*
X-2124000Y-2401143D01*
X-2124000Y-2258286D01*
X-2195429Y-2115429D01*
X-2266857Y-2044000D01*
X-2409715Y-1972571D01*
X-2766857Y-1972571D01*
X-2981143Y-2044000D01*
X-3409714Y-2472571D02*
X-3981143Y-2472571D01*
X-3624000Y-1972571D02*
X-3624000Y-3258286D01*
X-3695428Y-3401143D01*
X-3838286Y-3472571D01*
X-3981143Y-3472571D01*
X-4695429Y-3472571D02*
X-4552571Y-3401143D01*
X-4481143Y-3329714D01*
X-4409714Y-3186857D01*
X-4409714Y-2758286D01*
X-4481143Y-2615429D01*
X-4552571Y-2544000D01*
X-4695429Y-2472571D01*
X-4909714Y-2472571D01*
X-5052571Y-2544000D01*
X-5124000Y-2615429D01*
X-5195429Y-2758286D01*
X-5195429Y-3186857D01*
X-5124000Y-3329714D01*
X-5052571Y-3401143D01*
X-4909714Y-3472571D01*
X-4695429Y-3472571D01*
X-5838286Y-2472571D02*
X-5838286Y-3472571D01*
X-5838286Y-2615429D02*
X-5909714Y-2544000D01*
X-6052572Y-2472571D01*
X-6266857Y-2472571D01*
X-6409714Y-2544000D01*
X-6481143Y-2686857D01*
X-6481143Y-3472571D01*
X-7766857Y-3401143D02*
X-7624000Y-3472571D01*
X-7338286Y-3472571D01*
X-7195429Y-3401143D01*
X-7124000Y-3258286D01*
X-7124000Y-2686857D01*
X-7195429Y-2544000D01*
X-7338286Y-2472571D01*
X-7624000Y-2472571D01*
X-7766857Y-2544000D01*
X-7838286Y-2686857D01*
X-7838286Y-2829714D01*
X-7124000Y-2972571D01*
X-9409714Y-1972571D02*
X-10266857Y-1972571D01*
X-9838286Y-3472571D02*
X-9838286Y-1972571D01*
X-11338285Y-3401143D02*
X-11195428Y-3472571D01*
X-10909714Y-3472571D01*
X-10766857Y-3401143D01*
X-10695428Y-3258286D01*
X-10695428Y-2686857D01*
X-10766857Y-2544000D01*
X-10909714Y-2472571D01*
X-11195428Y-2472571D01*
X-11338285Y-2544000D01*
X-11409714Y-2686857D01*
X-11409714Y-2829714D01*
X-10695428Y-2972571D01*
X-12695428Y-3401143D02*
X-12552571Y-3472571D01*
X-12266857Y-3472571D01*
X-12123999Y-3401143D01*
X-12052571Y-3329714D01*
X-11981142Y-3186857D01*
X-11981142Y-2758286D01*
X-12052571Y-2615429D01*
X-12123999Y-2544000D01*
X-12266857Y-2472571D01*
X-12552571Y-2472571D01*
X-12695428Y-2544000D01*
X-13338285Y-3472571D02*
X-13338285Y-1972571D01*
X-13981142Y-3472571D02*
X-13981142Y-2686857D01*
X-13909713Y-2544000D01*
X-13766856Y-2472571D01*
X-13552571Y-2472571D01*
X-13409713Y-2544000D01*
X-13338285Y-2615429D01*
X-14695428Y-2472571D02*
X-14695428Y-3472571D01*
X-14695428Y-2615429D02*
X-14766856Y-2544000D01*
X-14909714Y-2472571D01*
X-15123999Y-2472571D01*
X-15266856Y-2544000D01*
X-15338285Y-2686857D01*
X-15338285Y-3472571D01*
X-16266857Y-3472571D02*
X-16123999Y-3401143D01*
X-16052571Y-3329714D01*
X-15981142Y-3186857D01*
X-15981142Y-2758286D01*
X-16052571Y-2615429D01*
X-16123999Y-2544000D01*
X-16266857Y-2472571D01*
X-16481142Y-2472571D01*
X-16623999Y-2544000D01*
X-16695428Y-2615429D01*
X-16766857Y-2758286D01*
X-16766857Y-3186857D01*
X-16695428Y-3329714D01*
X-16623999Y-3401143D01*
X-16481142Y-3472571D01*
X-16266857Y-3472571D01*
X-17624000Y-3472571D02*
X-17481142Y-3401143D01*
X-17409714Y-3258286D01*
X-17409714Y-1972571D01*
X-18409714Y-3472571D02*
X-18266856Y-3401143D01*
X-18195428Y-3329714D01*
X-18123999Y-3186857D01*
X-18123999Y-2758286D01*
X-18195428Y-2615429D01*
X-18266856Y-2544000D01*
X-18409714Y-2472571D01*
X-18623999Y-2472571D01*
X-18766856Y-2544000D01*
X-18838285Y-2615429D01*
X-18909714Y-2758286D01*
X-18909714Y-3186857D01*
X-18838285Y-3329714D01*
X-18766856Y-3401143D01*
X-18623999Y-3472571D01*
X-18409714Y-3472571D01*
X-20195428Y-2472571D02*
X-20195428Y-3686857D01*
X-20123999Y-3829714D01*
X-20052571Y-3901143D01*
X-19909714Y-3972571D01*
X-19695428Y-3972571D01*
X-19552571Y-3901143D01*
X-20195428Y-3401143D02*
X-20052571Y-3472571D01*
X-19766857Y-3472571D01*
X-19623999Y-3401143D01*
X-19552571Y-3329714D01*
X-19481142Y-3186857D01*
X-19481142Y-2758286D01*
X-19552571Y-2615429D01*
X-19623999Y-2544000D01*
X-19766857Y-2472571D01*
X-20052571Y-2472571D01*
X-20195428Y-2544000D01*
X-20766857Y-2472571D02*
X-21124000Y-3472571D01*
X-21481142Y-2472571D02*
X-21124000Y-3472571D01*
X-20981142Y-3829714D01*
X-20909714Y-3901143D01*
X-20766857Y-3972571D01*
D12*
X1651000Y508000D02*
X-127000Y508000D01*
X1397000Y1397000D02*
X-889000Y1397000D01*
X1905000Y-381000D02*
X889000Y-381000D01*
D13*
X5334000Y1524000D02*
X2794000Y1524000D01*
X2794000Y1524000D02*
X2794000Y-889000D01*
X2794000Y-889000D02*
X5334000Y-889000D01*
X5334000Y-889000D02*
X5334000Y1524000D01*
X2794000Y-127000D02*
X3556000Y-889000D01*
X4572000Y1524000D02*
X5334000Y762000D01*
D14*
X272143Y-217714D02*
X-163286Y-217714D01*
X54428Y-979714D02*
X54428Y-217714D01*
X-417286Y-979714D02*
X-417286Y-217714D01*
X-671286Y-762000D01*
X-925286Y-217714D01*
X-925286Y-979714D01*
M02*
