G04 #@! TF.FileFunction,Soldermask,Top*
%FSLAX46Y46*%
G04 Gerber Fmt 4.6, Leading zero omitted, Abs format (unit mm)*
G04 Created by KiCad (PCBNEW 4.0.0~rc1a-stable) date Sat 16 Jan 2016 09:07:18 PM JST*
%MOMM*%
G01*
G04 APERTURE LIST*
%ADD10C,0.100000*%
G04 APERTURE END LIST*
D10*
G36*
X-9184183Y-3879832D02*
X-9184169Y-3879836D01*
X-9184134Y-3879840D01*
X-8985838Y-3941222D01*
X-8803242Y-4039952D01*
X-8643301Y-4172267D01*
X-8512105Y-4333129D01*
X-8414653Y-4516410D01*
X-8354656Y-4715128D01*
X-8334400Y-4921716D01*
X-8334400Y-5238284D01*
X-8334504Y-5253134D01*
X-8357642Y-5459419D01*
X-8420408Y-5657281D01*
X-8520409Y-5839183D01*
X-8653838Y-5998197D01*
X-8815612Y-6128267D01*
X-8999568Y-6224437D01*
X-9198701Y-6283045D01*
X-9198735Y-6283048D01*
X-9198748Y-6283052D01*
X-9405423Y-6301861D01*
X-9611817Y-6280168D01*
X-9611831Y-6280164D01*
X-9611866Y-6280160D01*
X-9810162Y-6218778D01*
X-9992758Y-6120048D01*
X-10152699Y-5987733D01*
X-10283895Y-5826871D01*
X-10381347Y-5643590D01*
X-10441344Y-5444872D01*
X-10461600Y-5238284D01*
X-10461600Y-4921716D01*
X-10461496Y-4906866D01*
X-10438358Y-4700581D01*
X-10375592Y-4502719D01*
X-10275591Y-4320817D01*
X-10142162Y-4161803D01*
X-9980388Y-4031733D01*
X-9796432Y-3935563D01*
X-9597299Y-3876955D01*
X-9597265Y-3876952D01*
X-9597252Y-3876948D01*
X-9390577Y-3858139D01*
X-9184183Y-3879832D01*
X-9184183Y-3879832D01*
G37*
G36*
X-11724183Y-3879832D02*
X-11724169Y-3879836D01*
X-11724134Y-3879840D01*
X-11525838Y-3941222D01*
X-11343242Y-4039952D01*
X-11183301Y-4172267D01*
X-11052105Y-4333129D01*
X-10954653Y-4516410D01*
X-10894656Y-4715128D01*
X-10874400Y-4921716D01*
X-10874400Y-5238284D01*
X-10874504Y-5253134D01*
X-10897642Y-5459419D01*
X-10960408Y-5657281D01*
X-11060409Y-5839183D01*
X-11193838Y-5998197D01*
X-11355612Y-6128267D01*
X-11539568Y-6224437D01*
X-11738701Y-6283045D01*
X-11738735Y-6283048D01*
X-11738748Y-6283052D01*
X-11945423Y-6301861D01*
X-12151817Y-6280168D01*
X-12151831Y-6280164D01*
X-12151866Y-6280160D01*
X-12350162Y-6218778D01*
X-12532758Y-6120048D01*
X-12692699Y-5987733D01*
X-12823895Y-5826871D01*
X-12921347Y-5643590D01*
X-12981344Y-5444872D01*
X-13001600Y-5238284D01*
X-13001600Y-4921716D01*
X-13001496Y-4906866D01*
X-12978358Y-4700581D01*
X-12915592Y-4502719D01*
X-12815591Y-4320817D01*
X-12682162Y-4161803D01*
X-12520388Y-4031733D01*
X-12336432Y-3935563D01*
X-12137299Y-3876955D01*
X-12137265Y-3876952D01*
X-12137252Y-3876948D01*
X-11930577Y-3858139D01*
X-11724183Y-3879832D01*
X-11724183Y-3879832D01*
G37*
G36*
X-14264183Y-3879832D02*
X-14264169Y-3879836D01*
X-14264134Y-3879840D01*
X-14065838Y-3941222D01*
X-13883242Y-4039952D01*
X-13723301Y-4172267D01*
X-13592105Y-4333129D01*
X-13494653Y-4516410D01*
X-13434656Y-4715128D01*
X-13414400Y-4921716D01*
X-13414400Y-5238284D01*
X-13414504Y-5253134D01*
X-13437642Y-5459419D01*
X-13500408Y-5657281D01*
X-13600409Y-5839183D01*
X-13733838Y-5998197D01*
X-13895612Y-6128267D01*
X-14079568Y-6224437D01*
X-14278701Y-6283045D01*
X-14278735Y-6283048D01*
X-14278748Y-6283052D01*
X-14485423Y-6301861D01*
X-14691817Y-6280168D01*
X-14691831Y-6280164D01*
X-14691866Y-6280160D01*
X-14890162Y-6218778D01*
X-15072758Y-6120048D01*
X-15232699Y-5987733D01*
X-15363895Y-5826871D01*
X-15461347Y-5643590D01*
X-15521344Y-5444872D01*
X-15541600Y-5238284D01*
X-15541600Y-4921716D01*
X-15541496Y-4906866D01*
X-15518358Y-4700581D01*
X-15455592Y-4502719D01*
X-15355591Y-4320817D01*
X-15222162Y-4161803D01*
X-15060388Y-4031733D01*
X-14876432Y-3935563D01*
X-14677299Y-3876955D01*
X-14677265Y-3876952D01*
X-14677252Y-3876948D01*
X-14470577Y-3858139D01*
X-14264183Y-3879832D01*
X-14264183Y-3879832D01*
G37*
G36*
X-15630200Y-3229600D02*
X-16783240Y-3229600D01*
X-16797170Y-3231580D01*
X-16809996Y-3237361D01*
X-16820704Y-3246488D01*
X-16828446Y-3258236D01*
X-16832608Y-3271676D01*
X-16833240Y-3279600D01*
X-16833240Y-3814000D01*
X-16831260Y-3827930D01*
X-16825479Y-3840756D01*
X-16816352Y-3851464D01*
X-16804604Y-3859206D01*
X-16791164Y-3863368D01*
X-16783240Y-3864000D01*
X-15700400Y-3864000D01*
X-15700400Y-6296000D01*
X-17827600Y-6296000D01*
X-17827600Y-3897440D01*
X-17829580Y-3883510D01*
X-17832680Y-3876632D01*
X-17832680Y-2248560D01*
X-16830200Y-2248560D01*
X-16816270Y-2246580D01*
X-16803444Y-2240799D01*
X-16792736Y-2231672D01*
X-16784994Y-2219924D01*
X-16780832Y-2206484D01*
X-16780200Y-2198560D01*
X-16780200Y-2029600D01*
X-15630200Y-2029600D01*
X-15630200Y-3229600D01*
X-15630200Y-3229600D01*
G37*
G36*
X-19348000Y-4960000D02*
X-27748000Y-4960000D01*
X-27748000Y-2660000D01*
X-19348000Y-2660000D01*
X-19348000Y-4960000D01*
X-19348000Y-4960000D01*
G37*
G36*
X-6008000Y-4500500D02*
X-7708000Y-4500500D01*
X-7708000Y-3500500D01*
X-6008000Y-3500500D01*
X-6008000Y-4500500D01*
X-6008000Y-4500500D01*
G37*
G36*
X-18235320Y-3847440D02*
X-19234760Y-3847440D01*
X-19234760Y-2248560D01*
X-18235320Y-2248560D01*
X-18235320Y-3847440D01*
X-18235320Y-3847440D01*
G37*
G36*
X-8729000Y-3625000D02*
X-10829000Y-3625000D01*
X-10829000Y-2725000D01*
X-8729000Y-2725000D01*
X-8729000Y-3625000D01*
X-8729000Y-3625000D01*
G37*
G36*
X-6767220Y-3253080D02*
X-7964780Y-3253080D01*
X-7964780Y-2055520D01*
X-6767220Y-2055520D01*
X-6767220Y-3253080D01*
X-6767220Y-3253080D01*
G37*
G36*
X-19348000Y-2500000D02*
X-27248000Y-2500000D01*
X-27248000Y-100000D01*
X-19348000Y-100000D01*
X-19348000Y-2500000D01*
X-19348000Y-2500000D01*
G37*
G36*
X-9255000Y2633000D02*
X-9253020Y2619070D01*
X-9247239Y2606244D01*
X-9238112Y2595536D01*
X-9226364Y2587794D01*
X-9212924Y2583632D01*
X-9205000Y2583000D01*
X-8480000Y2583000D01*
X-8480000Y-767000D01*
X-8478020Y-780930D01*
X-8472239Y-793756D01*
X-8463112Y-804464D01*
X-8451364Y-812206D01*
X-8437924Y-816368D01*
X-8430000Y-817000D01*
X-8430000Y-1667000D01*
X-9305000Y-1667000D01*
X-9318930Y-1668980D01*
X-9331756Y-1674761D01*
X-9342464Y-1683888D01*
X-9350206Y-1695636D01*
X-9354368Y-1709076D01*
X-9355000Y-1717000D01*
X-9355000Y-2442000D01*
X-12705000Y-2442000D01*
X-12718930Y-2443980D01*
X-12731756Y-2449761D01*
X-12742464Y-2458888D01*
X-12750206Y-2470636D01*
X-12754368Y-2484076D01*
X-12755000Y-2492000D01*
X-13605000Y-2492000D01*
X-13605000Y-1617000D01*
X-13606980Y-1603070D01*
X-13612761Y-1590244D01*
X-13621888Y-1579536D01*
X-13633636Y-1571794D01*
X-13647076Y-1567632D01*
X-13655000Y-1567000D01*
X-14380000Y-1567000D01*
X-14380000Y1783000D01*
X-14381980Y1796930D01*
X-14387761Y1809756D01*
X-14396888Y1820464D01*
X-14408636Y1828206D01*
X-14422076Y1832368D01*
X-14430000Y1833000D01*
X-14430000Y2683000D01*
X-13555000Y2683000D01*
X-13541070Y2684980D01*
X-13528244Y2690761D01*
X-13517536Y2699888D01*
X-13509794Y2711636D01*
X-13505632Y2725076D01*
X-13505000Y2733000D01*
X-13505000Y3458000D01*
X-10155000Y3458000D01*
X-10141070Y3459980D01*
X-10128244Y3465761D01*
X-10117536Y3474888D01*
X-10109794Y3486636D01*
X-10105632Y3500076D01*
X-10105000Y3508000D01*
X-9255000Y3508000D01*
X-9255000Y2633000D01*
X-9255000Y2633000D01*
G37*
G36*
X-17330000Y-2066000D02*
X-18230000Y-2066000D01*
X-18230000Y34000D01*
X-17330000Y34000D01*
X-17330000Y-2066000D01*
X-17330000Y-2066000D01*
G37*
G36*
X-6767220Y-1754480D02*
X-7964780Y-1754480D01*
X-7964780Y-556920D01*
X-6767220Y-556920D01*
X-6767220Y-1754480D01*
X-6767220Y-1754480D01*
G37*
G36*
X-15630200Y-1729600D02*
X-16780200Y-1729600D01*
X-16780200Y-529600D01*
X-15630200Y-529600D01*
X-15630200Y-1729600D01*
X-15630200Y-1729600D01*
G37*
G36*
X-5881000Y-246000D02*
X-7581000Y-246000D01*
X-7581000Y754000D01*
X-5881000Y754000D01*
X-5881000Y-246000D01*
X-5881000Y-246000D01*
G37*
G36*
X-18015217Y2534332D02*
X-17966228Y2524276D01*
X-17920127Y2504897D01*
X-17878669Y2476934D01*
X-17843430Y2441448D01*
X-17815757Y2399796D01*
X-17796702Y2353564D01*
X-17787055Y2304848D01*
X-17787055Y2304838D01*
X-17786989Y2304504D01*
X-17787786Y2247385D01*
X-17787863Y2247046D01*
X-17787863Y2247043D01*
X-17798864Y2198616D01*
X-17819203Y2152936D01*
X-17848032Y2112067D01*
X-17884244Y2077585D01*
X-17893743Y2071556D01*
X-17904443Y2062420D01*
X-17912175Y2050666D01*
X-17916326Y2037222D01*
X-17916567Y2023155D01*
X-17912879Y2009577D01*
X-17905555Y1997564D01*
X-17894910Y1987888D01*
X-17878669Y1976934D01*
X-17843430Y1941448D01*
X-17815757Y1899796D01*
X-17796702Y1853564D01*
X-17787055Y1804848D01*
X-17787055Y1804838D01*
X-17786989Y1804504D01*
X-17787786Y1747385D01*
X-17787863Y1747046D01*
X-17787863Y1747043D01*
X-17798864Y1698616D01*
X-17819203Y1652936D01*
X-17848032Y1612067D01*
X-17884244Y1577585D01*
X-17893743Y1571556D01*
X-17904443Y1562420D01*
X-17912175Y1550666D01*
X-17916326Y1537222D01*
X-17916567Y1523155D01*
X-17912879Y1509577D01*
X-17905555Y1497564D01*
X-17894910Y1487888D01*
X-17878669Y1476934D01*
X-17843430Y1441448D01*
X-17815757Y1399796D01*
X-17796702Y1353564D01*
X-17787055Y1304848D01*
X-17787055Y1304838D01*
X-17786989Y1304504D01*
X-17787786Y1247385D01*
X-17787863Y1247046D01*
X-17787863Y1247043D01*
X-17798864Y1198616D01*
X-17819203Y1152936D01*
X-17848032Y1112067D01*
X-17884244Y1077585D01*
X-17893743Y1071556D01*
X-17904443Y1062420D01*
X-17912175Y1050666D01*
X-17916326Y1037222D01*
X-17916567Y1023155D01*
X-17912879Y1009577D01*
X-17905555Y997564D01*
X-17894910Y987888D01*
X-17878669Y976934D01*
X-17843430Y941448D01*
X-17815757Y899796D01*
X-17796702Y853564D01*
X-17787055Y804848D01*
X-17787055Y804838D01*
X-17786989Y804504D01*
X-17787786Y747385D01*
X-17787863Y747046D01*
X-17787863Y747043D01*
X-17798864Y698616D01*
X-17819203Y652936D01*
X-17848032Y612067D01*
X-17884244Y577585D01*
X-17926470Y550787D01*
X-17973094Y532703D01*
X-18022340Y524019D01*
X-18072337Y525066D01*
X-18121185Y535806D01*
X-18167007Y555825D01*
X-18208071Y584366D01*
X-18242812Y620341D01*
X-18250104Y631656D01*
X-18259313Y642293D01*
X-18271122Y649942D01*
X-18284594Y653999D01*
X-18298662Y654143D01*
X-18312214Y650361D01*
X-18324176Y642953D01*
X-18332990Y633392D01*
X-18348032Y612067D01*
X-18384244Y577585D01*
X-18426470Y550787D01*
X-18473094Y532703D01*
X-18522340Y524019D01*
X-18572337Y525066D01*
X-18621185Y535806D01*
X-18667007Y555825D01*
X-18708071Y584366D01*
X-18742812Y620341D01*
X-18750104Y631656D01*
X-18759313Y642293D01*
X-18771122Y649942D01*
X-18784594Y653999D01*
X-18798662Y654143D01*
X-18812214Y650361D01*
X-18824176Y642953D01*
X-18832990Y633392D01*
X-18848032Y612067D01*
X-18884244Y577585D01*
X-18926470Y550787D01*
X-18973094Y532703D01*
X-19022340Y524019D01*
X-19072337Y525066D01*
X-19121185Y535806D01*
X-19167007Y555825D01*
X-19208071Y584366D01*
X-19242811Y620340D01*
X-19255972Y640762D01*
X-19265182Y651398D01*
X-19276990Y659048D01*
X-19290462Y663105D01*
X-19304531Y663248D01*
X-19318083Y659466D01*
X-19330044Y652058D01*
X-19339468Y641611D01*
X-19345609Y628952D01*
X-19348000Y613676D01*
X-19348000Y100000D01*
X-27248000Y100000D01*
X-27248000Y1113676D01*
X-19348000Y1113676D01*
X-19348000Y945499D01*
X-19346020Y931569D01*
X-19340239Y918743D01*
X-19331112Y908035D01*
X-19319364Y900293D01*
X-19305924Y896131D01*
X-19291857Y895878D01*
X-19278276Y899554D01*
X-19266257Y906868D01*
X-19256744Y917251D01*
X-19238288Y944205D01*
X-19202557Y979196D01*
X-19189486Y987749D01*
X-19178914Y997033D01*
X-19171347Y1008894D01*
X-19167384Y1022394D01*
X-19167382Y1023155D01*
X-18916567Y1023155D01*
X-18912879Y1009577D01*
X-18905555Y997564D01*
X-18894910Y987888D01*
X-18878669Y976934D01*
X-18843430Y941448D01*
X-18833603Y926657D01*
X-18824246Y916150D01*
X-18812332Y908666D01*
X-18798805Y904797D01*
X-18784735Y904850D01*
X-18771237Y908821D01*
X-18759380Y916395D01*
X-18750702Y926077D01*
X-18738290Y944204D01*
X-18702557Y979196D01*
X-18689486Y987749D01*
X-18678914Y997033D01*
X-18671347Y1008894D01*
X-18667384Y1022394D01*
X-18667382Y1023155D01*
X-18416567Y1023155D01*
X-18412879Y1009577D01*
X-18405555Y997564D01*
X-18394910Y987888D01*
X-18378669Y976934D01*
X-18343430Y941448D01*
X-18333603Y926657D01*
X-18324246Y916150D01*
X-18312332Y908666D01*
X-18298805Y904797D01*
X-18284735Y904850D01*
X-18271237Y908821D01*
X-18259380Y916395D01*
X-18250702Y926077D01*
X-18238290Y944204D01*
X-18202557Y979196D01*
X-18189486Y987749D01*
X-18178914Y997033D01*
X-18171347Y1008894D01*
X-18167384Y1022394D01*
X-18167339Y1036464D01*
X-18171216Y1049989D01*
X-18178707Y1061898D01*
X-18188328Y1070644D01*
X-18208071Y1084366D01*
X-18242812Y1120341D01*
X-18250104Y1131656D01*
X-18259313Y1142293D01*
X-18271122Y1149942D01*
X-18284594Y1153999D01*
X-18298662Y1154143D01*
X-18312214Y1150361D01*
X-18324176Y1142953D01*
X-18332990Y1133392D01*
X-18348032Y1112067D01*
X-18384244Y1077585D01*
X-18393743Y1071556D01*
X-18404443Y1062420D01*
X-18412175Y1050666D01*
X-18416326Y1037222D01*
X-18416567Y1023155D01*
X-18667382Y1023155D01*
X-18667339Y1036464D01*
X-18671216Y1049989D01*
X-18678707Y1061898D01*
X-18688328Y1070644D01*
X-18708071Y1084366D01*
X-18742812Y1120341D01*
X-18750104Y1131656D01*
X-18759313Y1142293D01*
X-18771122Y1149942D01*
X-18784594Y1153999D01*
X-18798662Y1154143D01*
X-18812214Y1150361D01*
X-18824176Y1142953D01*
X-18832990Y1133392D01*
X-18848032Y1112067D01*
X-18884244Y1077585D01*
X-18893743Y1071556D01*
X-18904443Y1062420D01*
X-18912175Y1050666D01*
X-18916326Y1037222D01*
X-18916567Y1023155D01*
X-19167382Y1023155D01*
X-19167339Y1036464D01*
X-19171216Y1049989D01*
X-19178707Y1061898D01*
X-19188328Y1070644D01*
X-19208071Y1084366D01*
X-19242811Y1120340D01*
X-19255972Y1140762D01*
X-19265182Y1151398D01*
X-19276990Y1159048D01*
X-19290462Y1163105D01*
X-19304531Y1163248D01*
X-19318083Y1159466D01*
X-19330044Y1152058D01*
X-19339468Y1141611D01*
X-19345609Y1128952D01*
X-19348000Y1113676D01*
X-27248000Y1113676D01*
X-27248000Y1613676D01*
X-19348000Y1613676D01*
X-19348000Y1445499D01*
X-19346020Y1431569D01*
X-19340239Y1418743D01*
X-19331112Y1408035D01*
X-19319364Y1400293D01*
X-19305924Y1396131D01*
X-19291857Y1395878D01*
X-19278276Y1399554D01*
X-19266257Y1406868D01*
X-19256744Y1417251D01*
X-19238288Y1444205D01*
X-19202557Y1479196D01*
X-19189486Y1487749D01*
X-19178914Y1497033D01*
X-19171347Y1508894D01*
X-19167384Y1522394D01*
X-19167382Y1523155D01*
X-18916567Y1523155D01*
X-18912879Y1509577D01*
X-18905555Y1497564D01*
X-18894910Y1487888D01*
X-18878669Y1476934D01*
X-18843430Y1441448D01*
X-18833603Y1426657D01*
X-18824246Y1416150D01*
X-18812332Y1408666D01*
X-18798805Y1404797D01*
X-18784735Y1404850D01*
X-18771237Y1408821D01*
X-18759380Y1416395D01*
X-18750702Y1426077D01*
X-18738290Y1444204D01*
X-18702557Y1479196D01*
X-18689486Y1487749D01*
X-18678914Y1497033D01*
X-18671347Y1508894D01*
X-18667384Y1522394D01*
X-18667382Y1523155D01*
X-18416567Y1523155D01*
X-18412879Y1509577D01*
X-18405555Y1497564D01*
X-18394910Y1487888D01*
X-18378669Y1476934D01*
X-18343430Y1441448D01*
X-18333603Y1426657D01*
X-18324246Y1416150D01*
X-18312332Y1408666D01*
X-18298805Y1404797D01*
X-18284735Y1404850D01*
X-18271237Y1408821D01*
X-18259380Y1416395D01*
X-18250702Y1426077D01*
X-18238290Y1444204D01*
X-18202557Y1479196D01*
X-18189486Y1487749D01*
X-18178914Y1497033D01*
X-18171347Y1508894D01*
X-18167384Y1522394D01*
X-18167339Y1536464D01*
X-18171216Y1549989D01*
X-18178707Y1561898D01*
X-18188328Y1570644D01*
X-18208071Y1584366D01*
X-18242812Y1620341D01*
X-18250104Y1631656D01*
X-18259313Y1642293D01*
X-18271122Y1649942D01*
X-18284594Y1653999D01*
X-18298662Y1654143D01*
X-18312214Y1650361D01*
X-18324176Y1642953D01*
X-18332990Y1633392D01*
X-18348032Y1612067D01*
X-18384244Y1577585D01*
X-18393743Y1571556D01*
X-18404443Y1562420D01*
X-18412175Y1550666D01*
X-18416326Y1537222D01*
X-18416567Y1523155D01*
X-18667382Y1523155D01*
X-18667339Y1536464D01*
X-18671216Y1549989D01*
X-18678707Y1561898D01*
X-18688328Y1570644D01*
X-18708071Y1584366D01*
X-18742812Y1620341D01*
X-18750104Y1631656D01*
X-18759313Y1642293D01*
X-18771122Y1649942D01*
X-18784594Y1653999D01*
X-18798662Y1654143D01*
X-18812214Y1650361D01*
X-18824176Y1642953D01*
X-18832990Y1633392D01*
X-18848032Y1612067D01*
X-18884244Y1577585D01*
X-18893743Y1571556D01*
X-18904443Y1562420D01*
X-18912175Y1550666D01*
X-18916326Y1537222D01*
X-18916567Y1523155D01*
X-19167382Y1523155D01*
X-19167339Y1536464D01*
X-19171216Y1549989D01*
X-19178707Y1561898D01*
X-19188328Y1570644D01*
X-19208071Y1584366D01*
X-19242811Y1620340D01*
X-19255972Y1640762D01*
X-19265182Y1651398D01*
X-19276990Y1659048D01*
X-19290462Y1663105D01*
X-19304531Y1663248D01*
X-19318083Y1659466D01*
X-19330044Y1652058D01*
X-19339468Y1641611D01*
X-19345609Y1628952D01*
X-19348000Y1613676D01*
X-27248000Y1613676D01*
X-27248000Y2500000D01*
X-19348000Y2500000D01*
X-19348000Y1945499D01*
X-19346020Y1931569D01*
X-19340239Y1918743D01*
X-19331112Y1908035D01*
X-19319364Y1900293D01*
X-19305924Y1896131D01*
X-19291857Y1895878D01*
X-19278276Y1899554D01*
X-19266257Y1906868D01*
X-19256744Y1917251D01*
X-19238288Y1944205D01*
X-19202557Y1979196D01*
X-19160714Y2006577D01*
X-19114344Y2025312D01*
X-19065227Y2034682D01*
X-19015217Y2034332D01*
X-18966228Y2024276D01*
X-18920127Y2004897D01*
X-18878669Y1976934D01*
X-18843430Y1941448D01*
X-18833603Y1926657D01*
X-18824246Y1916150D01*
X-18812332Y1908666D01*
X-18798805Y1904797D01*
X-18784735Y1904850D01*
X-18771237Y1908821D01*
X-18759380Y1916395D01*
X-18750702Y1926077D01*
X-18738290Y1944204D01*
X-18702557Y1979196D01*
X-18689486Y1987749D01*
X-18678914Y1997033D01*
X-18671347Y2008894D01*
X-18667384Y2022394D01*
X-18667382Y2023155D01*
X-18416567Y2023155D01*
X-18412879Y2009577D01*
X-18405555Y1997564D01*
X-18394910Y1987888D01*
X-18378669Y1976934D01*
X-18343430Y1941448D01*
X-18333603Y1926657D01*
X-18324246Y1916150D01*
X-18312332Y1908666D01*
X-18298805Y1904797D01*
X-18284735Y1904850D01*
X-18271237Y1908821D01*
X-18259380Y1916395D01*
X-18250702Y1926077D01*
X-18238290Y1944204D01*
X-18202557Y1979196D01*
X-18189486Y1987749D01*
X-18178914Y1997033D01*
X-18171347Y2008894D01*
X-18167384Y2022394D01*
X-18167339Y2036464D01*
X-18171216Y2049989D01*
X-18178707Y2061898D01*
X-18188328Y2070644D01*
X-18208071Y2084366D01*
X-18242812Y2120341D01*
X-18250104Y2131656D01*
X-18259313Y2142293D01*
X-18271122Y2149942D01*
X-18284594Y2153999D01*
X-18298662Y2154143D01*
X-18312214Y2150361D01*
X-18324176Y2142953D01*
X-18332990Y2133392D01*
X-18348032Y2112067D01*
X-18384244Y2077585D01*
X-18393743Y2071556D01*
X-18404443Y2062420D01*
X-18412175Y2050666D01*
X-18416326Y2037222D01*
X-18416567Y2023155D01*
X-18667382Y2023155D01*
X-18667339Y2036464D01*
X-18671216Y2049989D01*
X-18678707Y2061898D01*
X-18688328Y2070644D01*
X-18708071Y2084366D01*
X-18742811Y2120340D01*
X-18769901Y2162375D01*
X-18788310Y2208870D01*
X-18797338Y2258062D01*
X-18796639Y2308064D01*
X-18786243Y2356976D01*
X-18766542Y2402941D01*
X-18738286Y2444207D01*
X-18702557Y2479196D01*
X-18660714Y2506577D01*
X-18614344Y2525312D01*
X-18565227Y2534682D01*
X-18515217Y2534332D01*
X-18466228Y2524276D01*
X-18420127Y2504897D01*
X-18378669Y2476934D01*
X-18343430Y2441448D01*
X-18333603Y2426657D01*
X-18324246Y2416150D01*
X-18312332Y2408666D01*
X-18298805Y2404797D01*
X-18284735Y2404850D01*
X-18271237Y2408821D01*
X-18259380Y2416395D01*
X-18250702Y2426077D01*
X-18238290Y2444204D01*
X-18202557Y2479196D01*
X-18160714Y2506577D01*
X-18114344Y2525312D01*
X-18065227Y2534682D01*
X-18015217Y2534332D01*
X-18015217Y2534332D01*
G37*
G36*
X-5642000Y1324000D02*
X-8074000Y1324000D01*
X-8074000Y3756000D01*
X-5642000Y3756000D01*
X-5642000Y1324000D01*
X-5642000Y1324000D01*
G37*
G36*
X-16279000Y1965000D02*
X-17479000Y1965000D01*
X-17479000Y3115000D01*
X-16279000Y3115000D01*
X-16279000Y1965000D01*
X-16279000Y1965000D01*
G37*
G36*
X-14779000Y1965000D02*
X-15979000Y1965000D01*
X-15979000Y3115000D01*
X-14779000Y3115000D01*
X-14779000Y1965000D01*
X-14779000Y1965000D01*
G37*
G36*
X-19348000Y2660000D02*
X-27748000Y2660000D01*
X-27748000Y4960000D01*
X-19348000Y4960000D01*
X-19348000Y2660000D01*
X-19348000Y2660000D01*
G37*
G36*
X5179782Y5521369D02*
X5362284Y5483907D01*
X5534029Y5411712D01*
X5688483Y5307532D01*
X5819762Y5175333D01*
X5922862Y5020156D01*
X5993856Y4847911D01*
X6029975Y4665496D01*
X6029975Y4665486D01*
X6030041Y4665152D01*
X6027070Y4452357D01*
X6026994Y4452023D01*
X6026994Y4452011D01*
X5985798Y4270684D01*
X5910019Y4100484D01*
X5802628Y3948246D01*
X5667707Y3819763D01*
X5510408Y3719939D01*
X5336710Y3652565D01*
X5153238Y3620215D01*
X4966974Y3624116D01*
X4785011Y3664123D01*
X4614289Y3738710D01*
X4461306Y3845036D01*
X4331885Y3979054D01*
X4230965Y4135652D01*
X4162381Y4308875D01*
X4128748Y4492124D01*
X4131350Y4678409D01*
X4170084Y4860640D01*
X4243479Y5031882D01*
X4348735Y5185604D01*
X4481846Y5315957D01*
X4637738Y5417970D01*
X4810477Y5487761D01*
X4993479Y5522670D01*
X5179782Y5521369D01*
X5179782Y5521369D01*
G37*
G36*
X-16804183Y6280168D02*
X-16804169Y6280164D01*
X-16804134Y6280160D01*
X-16605838Y6218778D01*
X-16423242Y6120048D01*
X-16263301Y5987733D01*
X-16132105Y5826871D01*
X-16034653Y5643590D01*
X-15974656Y5444872D01*
X-15954400Y5238284D01*
X-15954400Y4921716D01*
X-15954504Y4906866D01*
X-15977642Y4700581D01*
X-16040408Y4502719D01*
X-16140409Y4320817D01*
X-16273838Y4161803D01*
X-16435612Y4031733D01*
X-16619568Y3935563D01*
X-16818701Y3876955D01*
X-16818735Y3876952D01*
X-16818748Y3876948D01*
X-17025423Y3858139D01*
X-17231817Y3879832D01*
X-17231831Y3879836D01*
X-17231866Y3879840D01*
X-17430162Y3941222D01*
X-17612758Y4039952D01*
X-17772699Y4172267D01*
X-17903895Y4333129D01*
X-18001347Y4516410D01*
X-18061344Y4715128D01*
X-18081600Y4921716D01*
X-18081600Y5238284D01*
X-18081496Y5253134D01*
X-18058358Y5459419D01*
X-17995592Y5657281D01*
X-17895591Y5839183D01*
X-17762162Y5998197D01*
X-17600388Y6128267D01*
X-17416432Y6224437D01*
X-17217299Y6283045D01*
X-17217265Y6283048D01*
X-17217252Y6283052D01*
X-17010577Y6301861D01*
X-16804183Y6280168D01*
X-16804183Y6280168D01*
G37*
G36*
X-14264183Y6280168D02*
X-14264169Y6280164D01*
X-14264134Y6280160D01*
X-14065838Y6218778D01*
X-13883242Y6120048D01*
X-13723301Y5987733D01*
X-13592105Y5826871D01*
X-13494653Y5643590D01*
X-13434656Y5444872D01*
X-13414400Y5238284D01*
X-13414400Y4921716D01*
X-13414504Y4906866D01*
X-13437642Y4700581D01*
X-13500408Y4502719D01*
X-13600409Y4320817D01*
X-13733838Y4161803D01*
X-13895612Y4031733D01*
X-14079568Y3935563D01*
X-14278701Y3876955D01*
X-14278735Y3876952D01*
X-14278748Y3876948D01*
X-14485423Y3858139D01*
X-14691817Y3879832D01*
X-14691831Y3879836D01*
X-14691866Y3879840D01*
X-14890162Y3941222D01*
X-15072758Y4039952D01*
X-15232699Y4172267D01*
X-15363895Y4333129D01*
X-15461347Y4516410D01*
X-15521344Y4715128D01*
X-15541600Y4921716D01*
X-15541600Y5238284D01*
X-15541496Y5253134D01*
X-15518358Y5459419D01*
X-15455592Y5657281D01*
X-15355591Y5839183D01*
X-15222162Y5998197D01*
X-15060388Y6128267D01*
X-14876432Y6224437D01*
X-14677299Y6283045D01*
X-14677265Y6283048D01*
X-14677252Y6283052D01*
X-14470577Y6301861D01*
X-14264183Y6280168D01*
X-14264183Y6280168D01*
G37*
G36*
X-11724183Y6280168D02*
X-11724169Y6280164D01*
X-11724134Y6280160D01*
X-11525838Y6218778D01*
X-11343242Y6120048D01*
X-11183301Y5987733D01*
X-11052105Y5826871D01*
X-10954653Y5643590D01*
X-10894656Y5444872D01*
X-10874400Y5238284D01*
X-10874400Y4921716D01*
X-10874504Y4906866D01*
X-10897642Y4700581D01*
X-10960408Y4502719D01*
X-11060409Y4320817D01*
X-11193838Y4161803D01*
X-11355612Y4031733D01*
X-11539568Y3935563D01*
X-11738701Y3876955D01*
X-11738735Y3876952D01*
X-11738748Y3876948D01*
X-11945423Y3858139D01*
X-12151817Y3879832D01*
X-12151831Y3879836D01*
X-12151866Y3879840D01*
X-12350162Y3941222D01*
X-12532758Y4039952D01*
X-12692699Y4172267D01*
X-12823895Y4333129D01*
X-12921347Y4516410D01*
X-12981344Y4715128D01*
X-13001600Y4921716D01*
X-13001600Y5238284D01*
X-13001496Y5253134D01*
X-12978358Y5459419D01*
X-12915592Y5657281D01*
X-12815591Y5839183D01*
X-12682162Y5998197D01*
X-12520388Y6128267D01*
X-12336432Y6224437D01*
X-12137299Y6283045D01*
X-12137265Y6283048D01*
X-12137252Y6283052D01*
X-11930577Y6301861D01*
X-11724183Y6280168D01*
X-11724183Y6280168D01*
G37*
G36*
X-9184183Y6280168D02*
X-9184169Y6280164D01*
X-9184134Y6280160D01*
X-8985838Y6218778D01*
X-8803242Y6120048D01*
X-8643301Y5987733D01*
X-8512105Y5826871D01*
X-8414653Y5643590D01*
X-8354656Y5444872D01*
X-8334400Y5238284D01*
X-8334400Y4921716D01*
X-8334504Y4906866D01*
X-8357642Y4700581D01*
X-8420408Y4502719D01*
X-8520409Y4320817D01*
X-8653838Y4161803D01*
X-8815612Y4031733D01*
X-8999568Y3935563D01*
X-9198701Y3876955D01*
X-9198735Y3876952D01*
X-9198748Y3876948D01*
X-9405423Y3858139D01*
X-9611817Y3879832D01*
X-9611831Y3879836D01*
X-9611866Y3879840D01*
X-9810162Y3941222D01*
X-9992758Y4039952D01*
X-10152699Y4172267D01*
X-10283895Y4333129D01*
X-10381347Y4516410D01*
X-10441344Y4715128D01*
X-10461600Y4921716D01*
X-10461600Y5238284D01*
X-10461496Y5253134D01*
X-10438358Y5459419D01*
X-10375592Y5657281D01*
X-10275591Y5839183D01*
X-10142162Y5998197D01*
X-9980388Y6128267D01*
X-9796432Y6224437D01*
X-9597299Y6283045D01*
X-9597265Y6283048D01*
X-9597252Y6283052D01*
X-9390577Y6301861D01*
X-9184183Y6280168D01*
X-9184183Y6280168D01*
G37*
G36*
X-5642000Y3864000D02*
X-8074000Y3864000D01*
X-8074000Y6296000D01*
X-5642000Y6296000D01*
X-5642000Y3864000D01*
X-5642000Y3864000D01*
G37*
M02*
